<?xml version="1.0" encoding="UTF-8"?> <svg xmlns="http://www.w3.org/2000/svg" width="32" height="32" viewBox="0 0 32 32" fill="none"> <rect width="32" height="32" rx="6" fill="#DADEE3"></rect> <path fill-rule="evenodd" clip-rule="evenodd" d="M10.4615 8.92323C10.4615 9.7729 9.77274 10.4617 8.92307 10.4617C8.07341 10.4617 7.38461 9.7729 7.38461 8.92323C7.38461 8.07356 8.07341 7.38477 8.92307 7.38477C9.77274 7.38477 10.4615 8.07356 10.4615 8.92323ZM19.3846 12.3078C20.7719 12.3078 22.1024 12.8465 23.0833 13.8052C24.0643 14.764 24.6154 16.0644 24.6154 17.4203V23.3848H21.1282V17.4203C21.1282 16.9683 20.9445 16.5348 20.6175 16.2153C20.2905 15.8957 19.847 15.7161 19.3846 15.7161C18.9222 15.7161 18.4787 15.8957 18.1517 16.2153C17.8247 16.5348 17.641 16.9683 17.641 17.4203V23.3848H14.1538V17.4203C14.1538 16.0644 14.7049 14.764 15.6859 13.8052C16.6669 12.8465 17.9973 12.3078 19.3846 12.3078ZM11.0769 13.5386H7.38461V23.3848H11.0769V13.5386Z" fill="white"></path> </svg> 