<?xml version="1.0" encoding="UTF-8"?> <svg xmlns="http://www.w3.org/2000/svg" width="168" height="168" viewBox="0 0 168 168" fill="none"> <mask id="mask0_4_168" style="mask-type:alpha" maskUnits="userSpaceOnUse" x="29" y="20" width="110" height="110"> <circle cx="84" cy="75" r="55" fill="#D9D9D9"></circle> </mask> <g mask="url(#mask0_4_168)"> <mask id="mask1_4_168" style="mask-type:alpha" maskUnits="userSpaceOnUse" x="29" y="20" width="110" height="110"> <circle cx="84" cy="75" r="55" fill="#D9D9D9"></circle> </mask> <g mask="url(#mask1_4_168)"> <circle cx="84" cy="75" r="54" fill="#F6F8FA" stroke="#6D7580" stroke-width="2"></circle> <path d="M121 75C121 88.8893 116.804 101.425 110.068 110.465C103.332 119.505 94.1052 125 84 125C73.8948 125 64.6676 119.505 57.9318 110.465C51.196 101.425 47 88.8893 47 75C47 61.1107 51.196 48.5752 57.9318 39.535C64.6676 30.4949 73.8948 25 84 25C94.1052 25 103.332 30.4949 110.068 39.535C116.804 48.5752 121 61.1107 121 75Z" stroke="#6D7580" stroke-width="2"></path> <path d="M85 177C60.4797 177 41 161.133 41 142C41 122.867 60.4797 107 85 107C109.52 107 129 122.867 129 142C129 161.133 109.52 177 85 177Z" stroke="#6D7580" stroke-width="2"></path> <path d="M85 43C60.4797 43 41 27.1333 41 8C41 -11.1333 60.4797 -27 85 -27C109.52 -27 129 -11.1333 129 8C129 27.1333 109.52 43 85 43Z" stroke="#6D7580" stroke-width="2"></path> <path d="M104 75C104 88.4288 101.665 100.539 97.9301 109.254C96.0617 113.614 93.8627 117.078 91.4717 119.438C89.0851 121.793 86.5613 123 84 123C81.4387 123 78.9149 121.793 76.5283 119.438C74.1373 117.078 71.9383 113.614 70.0699 109.254C66.3347 100.539 64 88.4288 64 75C64 61.5712 66.3347 49.4612 70.0699 40.7457C71.9383 36.3862 74.1373 32.9221 76.5283 30.5624C78.9149 28.207 81.4387 27 84 27C86.5613 27 89.0851 28.207 91.4717 30.5624C93.8627 32.9221 96.0617 36.3862 97.9301 40.7457C101.665 49.4612 104 61.5712 104 75Z" stroke="#6D7580" stroke-width="2"></path> <path d="M94 22C94 23.8104 92.993 25.5368 91.19 26.8481C89.388 28.1587 86.8492 29 84 29C81.1508 29 78.612 28.1587 76.81 26.8481C75.007 25.5368 74 23.8104 74 22C74 20.1896 75.007 18.4632 76.81 17.1519C78.612 15.8413 81.1508 15 84 15C86.8492 15 89.388 15.8413 91.19 17.1519C92.993 18.4632 94 20.1896 94 22Z" fill="#DADEE3" stroke="#6D7580" stroke-width="2"></path> <path d="M94 128C94 129.81 92.993 131.537 91.19 132.848C89.388 134.159 86.8492 135 84 135C81.1508 135 78.612 134.159 76.81 132.848C75.007 131.537 74 129.81 74 128C74 126.19 75.007 124.463 76.81 123.152C78.612 121.841 81.1508 121 84 121C86.8492 121 89.388 121.841 91.19 123.152C92.993 124.463 94 126.19 94 128Z" fill="#DADEE3" stroke="#6D7580" stroke-width="2"></path> <circle cx="84" cy="75" r="54" stroke="#6D7580" stroke-width="2"></circle> <path d="M84 29L84 121" stroke="#6D7580" stroke-width="2"></path> </g> <rect width="114" height="37" transform="translate(27 57)" fill="#F6F8FA"></rect> <path d="M63.6524 83.3077V89.4906H49V83.3077H51.8212V67.7274H49V61.5445H63.6524V67.7274H60.8489V83.3077H63.6524Z" fill="#6D7580"></path> <path d="M79.398 90C78.4341 90 77.6113 89.9297 76.9295 89.7892C76.2477 89.6487 75.6129 89.4204 75.0252 89.1042C74.4492 88.788 73.8321 88.3782 73.1738 87.8746L72.5567 89.4906H66.8615V80.9364H72.5214C72.8858 81.92 73.4442 82.6168 74.1965 83.0267C74.9605 83.4248 75.895 83.6239 77 83.6239C77.6818 83.6239 78.2636 83.4892 78.7456 83.2199C79.2275 82.9388 79.4685 82.57 79.4685 82.1133C79.4685 81.5395 79.2217 81.1121 78.728 80.831C78.2343 80.5383 77.5407 80.2689 76.6474 80.023C75.5071 79.7186 74.4727 79.3965 73.5441 79.0569C72.6272 78.7173 71.8044 78.366 71.0756 78.003C69.618 77.277 68.4425 76.2465 67.5491 74.9116C66.6558 73.5766 66.2091 71.8025 66.2091 69.5893C66.2091 67.8914 66.5793 66.3925 67.3199 65.0927C68.0487 63.8046 69.0949 62.8034 70.4584 62.089C71.8338 61.363 73.45 61 75.3073 61C77.576 61 79.3686 61.7202 80.6851 63.1605L81.5844 61.5094H86.6448V69.8879H81.2317C80.7263 68.834 80.1679 68.1022 79.5567 67.6923C78.9454 67.2825 78.105 67.0775 77.0353 67.0775C76.2242 67.0775 75.5953 67.2239 75.1486 67.5167C74.7019 67.7977 74.4786 68.19 74.4786 68.6935C74.4786 69.2556 74.8018 69.683 75.4484 69.9758C76.0831 70.2802 76.9882 70.5613 78.1637 70.8189C80.2208 71.2873 81.9958 71.8787 83.4887 72.593C84.9463 73.3073 86.11 74.3202 86.9798 75.6317C87.8615 76.9316 88.3023 78.612 88.3023 80.6729C88.3023 82.4177 87.9379 83.9986 87.2091 85.4155C86.4685 86.8324 85.4165 87.9507 84.0529 88.7704C82.7011 89.5901 81.1495 90 79.398 90Z" fill="#6D7580"></path> <path d="M104.877 90C101.95 90 99.4165 89.3735 97.2771 88.1205C95.1495 86.8676 93.5273 85.1462 92.4106 82.9564C91.3056 80.7666 90.7531 78.2665 90.7531 75.4561C90.7531 72.5403 91.3056 69.9992 92.4106 67.8328C93.5155 65.6548 95.1259 63.9744 97.2418 62.7916C99.3694 61.5972 101.914 61 104.877 61C107.827 61 110.366 61.5914 112.494 62.7741C114.61 63.9685 116.22 65.6548 117.325 67.8328C118.442 70.0109 119 72.552 119 75.4561C119 78.2665 118.448 80.7666 117.343 82.9564C116.238 85.1462 114.615 86.8676 112.476 88.1205C110.348 89.3735 107.815 90 104.877 90ZM104.877 83.7644C106.146 83.7644 107.116 82.9974 107.786 81.4634C108.468 79.9293 108.809 77.8801 108.809 75.3156C108.809 72.8213 108.479 70.8482 107.821 69.3961C107.175 67.9441 106.193 67.218 104.877 67.218C103.548 67.218 102.561 67.9441 101.914 69.3961C101.268 70.8482 100.945 72.8213 100.945 75.3156C100.945 77.8801 101.28 79.9293 101.95 81.4634C102.62 82.9974 103.595 83.7644 104.877 83.7644Z" fill="#6D7580"></path> </g> <path d="M32.4638 141.364V153H30.7081V141.364H32.4638ZM41.3672 144.42C41.3066 143.883 41.0566 143.466 40.6172 143.17C40.1778 142.871 39.6248 142.722 38.9581 142.722C38.4808 142.722 38.0679 142.797 37.7195 142.949C37.371 143.097 37.1001 143.301 36.907 143.562C36.7176 143.82 36.6229 144.114 36.6229 144.443C36.6229 144.72 36.6873 144.958 36.8161 145.159C36.9486 145.36 37.121 145.528 37.3331 145.665C37.549 145.797 37.7801 145.909 38.0263 146C38.2725 146.087 38.5092 146.159 38.7365 146.216L39.8729 146.511C40.2441 146.602 40.6248 146.725 41.0149 146.881C41.4051 147.036 41.7668 147.241 42.1001 147.494C42.4335 147.748 42.7024 148.062 42.907 148.438C43.1153 148.812 43.2195 149.261 43.2195 149.784C43.2195 150.443 43.049 151.028 42.7081 151.54C42.371 152.051 41.8804 152.455 41.2365 152.75C40.5964 153.045 39.8217 153.193 38.9126 153.193C38.0414 153.193 37.2876 153.055 36.6513 152.778C36.0149 152.502 35.5168 152.11 35.157 151.602C34.7971 151.091 34.5982 150.485 34.5604 149.784H36.3217C36.3558 150.205 36.4922 150.555 36.7308 150.835C36.9732 151.112 37.282 151.318 37.657 151.455C38.0357 151.587 38.4505 151.653 38.9013 151.653C39.3975 151.653 39.8388 151.576 40.2251 151.42C40.6153 151.261 40.9221 151.042 41.1456 150.761C41.3691 150.477 41.4808 150.146 41.4808 149.767C41.4808 149.422 41.3823 149.14 41.1854 148.92C40.9922 148.701 40.7289 148.519 40.3956 148.375C40.0661 148.231 39.6929 148.104 39.2763 147.994L37.9013 147.619C36.9695 147.366 36.2308 146.992 35.6854 146.5C35.1437 146.008 34.8729 145.356 34.8729 144.545C34.8729 143.875 35.0547 143.29 35.4183 142.79C35.782 142.29 36.2744 141.902 36.8956 141.625C37.5168 141.345 38.2176 141.205 38.9979 141.205C39.7857 141.205 40.4808 141.343 41.0831 141.619C41.6892 141.896 42.1664 142.277 42.5149 142.761C42.8634 143.242 43.0452 143.795 43.0604 144.42H41.3672ZM55.4254 147.182C55.4254 148.424 55.1982 149.492 54.7436 150.386C54.2891 151.277 53.666 151.962 52.8743 152.443C52.0864 152.92 51.1906 153.159 50.1868 153.159C49.1792 153.159 48.2796 152.92 47.4879 152.443C46.7 151.962 46.0788 151.275 45.6243 150.381C45.1697 149.487 44.9425 148.42 44.9425 147.182C44.9425 145.939 45.1697 144.873 45.6243 143.983C46.0788 143.089 46.7 142.403 47.4879 141.926C48.2796 141.445 49.1792 141.205 50.1868 141.205C51.1906 141.205 52.0864 141.445 52.8743 141.926C53.666 142.403 54.2891 143.089 54.7436 143.983C55.1982 144.873 55.4254 145.939 55.4254 147.182ZM53.6868 147.182C53.6868 146.235 53.5334 145.437 53.2266 144.79C52.9235 144.138 52.5069 143.646 51.9766 143.312C51.45 142.975 50.8535 142.807 50.1868 142.807C49.5163 142.807 48.9179 142.975 48.3913 143.312C47.8648 143.646 47.4482 144.138 47.1413 144.79C46.8383 145.437 46.6868 146.235 46.6868 147.182C46.6868 148.129 46.8383 148.928 47.1413 149.58C47.4482 150.227 47.8648 150.72 48.3913 151.057C48.9179 151.39 49.5163 151.557 50.1868 151.557C50.8535 151.557 51.45 151.39 51.9766 151.057C52.5069 150.72 52.9235 150.227 53.2266 149.58C53.5334 148.928 53.6868 148.129 53.6868 147.182ZM61.2692 140.818L57.5192 154.75H56.0021L59.7521 140.818H61.2692ZM64.6044 141.364V153H62.8487V141.364H64.6044ZM67.1612 153V141.364H74.4567V142.875H68.9169V146.42H74.076V147.926H68.9169V151.489H74.5249V153H67.1612ZM86.4666 145.148H84.6939C84.6257 144.769 84.4988 144.436 84.3132 144.148C84.1276 143.86 83.9003 143.616 83.6314 143.415C83.3625 143.214 83.0613 143.062 82.728 142.96C82.3984 142.858 82.0481 142.807 81.6768 142.807C81.0064 142.807 80.406 142.975 79.8757 143.312C79.3492 143.65 78.9325 144.144 78.6257 144.795C78.3227 145.447 78.1712 146.242 78.1712 147.182C78.1712 148.129 78.3227 148.928 78.6257 149.58C78.9325 150.231 79.3511 150.723 79.8814 151.057C80.4117 151.39 81.0083 151.557 81.6712 151.557C82.0386 151.557 82.3871 151.508 82.7166 151.409C83.05 151.307 83.3511 151.157 83.62 150.96C83.889 150.763 84.1162 150.523 84.3018 150.239C84.4912 149.951 84.6219 149.621 84.6939 149.25L86.4666 149.256C86.3719 149.828 86.1882 150.354 85.9155 150.835C85.6465 151.312 85.3 151.725 84.8757 152.074C84.4553 152.419 83.9742 152.686 83.4325 152.875C82.8909 153.064 82.3 153.159 81.6598 153.159C80.6522 153.159 79.7545 152.92 78.9666 152.443C78.1787 151.962 77.5575 151.275 77.103 150.381C76.6522 149.487 76.4268 148.42 76.4268 147.182C76.4268 145.939 76.6541 144.873 77.1087 143.983C77.5632 143.089 78.1844 142.403 78.9723 141.926C79.7602 141.445 80.656 141.205 81.6598 141.205C82.2772 141.205 82.853 141.294 83.3871 141.472C83.925 141.646 84.4079 141.903 84.8359 142.244C85.264 142.581 85.6181 142.994 85.8984 143.483C86.1787 143.968 86.3681 144.523 86.4666 145.148ZM92.6428 153V151.727L96.5803 147.648C97.0007 147.205 97.3473 146.816 97.62 146.483C97.8965 146.146 98.103 145.826 98.2393 145.523C98.3757 145.22 98.4439 144.898 98.4439 144.557C98.4439 144.17 98.353 143.837 98.1712 143.557C97.9893 143.273 97.7412 143.055 97.4268 142.903C97.1125 142.748 96.7583 142.67 96.3643 142.67C95.9477 142.67 95.584 142.756 95.2734 142.926C94.9628 143.097 94.7242 143.337 94.5575 143.648C94.3909 143.958 94.3075 144.322 94.3075 144.739H92.6314C92.6314 144.03 92.7943 143.411 93.12 142.881C93.4458 142.35 93.8928 141.939 94.4609 141.648C95.0291 141.352 95.675 141.205 96.3984 141.205C97.1295 141.205 97.7734 141.35 98.3303 141.642C98.8909 141.93 99.3284 142.324 99.6428 142.824C99.9571 143.32 100.114 143.881 100.114 144.506C100.114 144.938 100.033 145.36 99.87 145.773C99.7109 146.186 99.4325 146.646 99.0348 147.153C98.6371 147.657 98.084 148.269 97.3757 148.989L95.0632 151.409V151.494H100.302V153H92.6428ZM102.847 153L107.927 142.955V142.869H102.052V141.364H109.745V142.92L104.683 153H102.847ZM115.522 153.193C114.624 153.189 113.857 152.953 113.221 152.483C112.585 152.013 112.098 151.33 111.761 150.432C111.424 149.534 111.255 148.453 111.255 147.188C111.255 145.926 111.424 144.848 111.761 143.955C112.102 143.061 112.59 142.379 113.227 141.909C113.867 141.439 114.632 141.205 115.522 141.205C116.412 141.205 117.175 141.441 117.812 141.915C118.448 142.384 118.935 143.066 119.272 143.96C119.613 144.85 119.783 145.926 119.783 147.188C119.783 148.456 119.615 149.54 119.278 150.438C118.941 151.331 118.454 152.015 117.817 152.489C117.181 152.958 116.416 153.193 115.522 153.193ZM115.522 151.676C116.31 151.676 116.925 151.292 117.369 150.523C117.816 149.754 118.039 148.642 118.039 147.188C118.039 146.222 117.937 145.405 117.732 144.739C117.531 144.068 117.242 143.561 116.863 143.216C116.488 142.867 116.041 142.693 115.522 142.693C114.738 142.693 114.122 143.08 113.675 143.852C113.228 144.625 113.003 145.737 112.999 147.188C112.999 148.157 113.1 148.977 113.3 149.648C113.505 150.314 113.795 150.82 114.17 151.165C114.545 151.506 114.996 151.676 115.522 151.676ZM125.85 153.193C124.952 153.189 124.185 152.953 123.549 152.483C122.913 152.013 122.426 151.33 122.089 150.432C121.752 149.534 121.583 148.453 121.583 147.188C121.583 145.926 121.752 144.848 122.089 143.955C122.43 143.061 122.918 142.379 123.555 141.909C124.195 141.439 124.96 141.205 125.85 141.205C126.74 141.205 127.504 141.441 128.14 141.915C128.776 142.384 129.263 143.066 129.6 143.96C129.941 144.85 130.112 145.926 130.112 147.188C130.112 148.456 129.943 149.54 129.606 150.438C129.269 151.331 128.782 152.015 128.146 152.489C127.509 152.958 126.744 153.193 125.85 153.193ZM125.85 151.676C126.638 151.676 127.254 151.292 127.697 150.523C128.144 149.754 128.367 148.642 128.367 147.188C128.367 146.222 128.265 145.405 128.06 144.739C127.86 144.068 127.57 143.561 127.191 143.216C126.816 142.867 126.369 142.693 125.85 142.693C125.066 142.693 124.451 143.08 124.004 143.852C123.557 144.625 123.331 145.737 123.327 147.188C123.327 148.157 123.428 148.977 123.629 149.648C123.833 150.314 124.123 150.82 124.498 151.165C124.873 151.506 125.324 151.676 125.85 151.676ZM136.542 141.364V153H134.781V143.125H134.712L131.928 144.943V143.261L134.832 141.364H136.542Z" fill="#6D7580"></path> </svg> 