<?xml version="1.0" encoding="UTF-8"?> <svg xmlns="http://www.w3.org/2000/svg" width="103" height="103" viewBox="0 0 103 103" fill="none"> <rect x="0.5" y="0.5" width="102" height="102" rx="6.5" fill="white"></rect> <path d="M34.5608 85.9287V77.3623H35.967V85.9287H34.5608ZM45.5382 79.3193C46.2648 79.3193 46.8116 79.5068 47.1788 79.8818C47.5499 80.2568 47.7355 80.8584 47.7355 81.6865V85.9287H46.3585V81.9326C46.3585 81.4404 46.2628 81.0693 46.0714 80.8193C45.88 80.5693 45.589 80.4443 45.1984 80.4443C44.6515 80.4443 44.257 80.6201 44.0148 80.9717C43.7765 81.3193 43.6573 81.8252 43.6573 82.4893V85.9287H42.2804V81.9326C42.2804 81.6045 42.2374 81.3311 42.1515 81.1123C42.0695 80.8897 41.9425 80.7236 41.7706 80.6143C41.5988 80.501 41.382 80.4443 41.1202 80.4443C40.7413 80.4443 40.4386 80.5303 40.212 80.7022C39.9894 80.874 39.8292 81.1279 39.7316 81.4639C39.6339 81.7959 39.5851 82.2041 39.5851 82.6885V85.9287H38.2081V79.4424H39.2804L39.4738 80.3154H39.5499C39.6827 80.0889 39.8468 79.9033 40.0421 79.7588C40.2413 79.6104 40.462 79.501 40.7042 79.4307C40.9464 79.3564 41.1984 79.3193 41.4601 79.3193C41.9445 79.3193 42.3527 79.4053 42.6847 79.5772C43.0167 79.7451 43.2648 80.0029 43.4288 80.3506H43.5343C43.7374 79.999 44.0206 79.7393 44.3839 79.5713C44.7472 79.4033 45.132 79.3193 45.5382 79.3193ZM52.3203 79.3193C53.1406 79.3193 53.7598 79.501 54.1777 79.8643C54.5996 80.2275 54.8106 80.7939 54.8106 81.5635V85.9287H53.832L53.5684 85.0088H53.5215C53.3379 85.2432 53.1484 85.4365 52.9531 85.5889C52.7578 85.7412 52.5313 85.8545 52.2734 85.9287C52.0195 86.0068 51.709 86.0459 51.3418 86.0459C50.9551 86.0459 50.6094 85.9756 50.3047 85.835C50 85.6904 49.7598 85.4717 49.584 85.1787C49.4082 84.8857 49.3203 84.5147 49.3203 84.0654C49.3203 83.3975 49.5684 82.8955 50.0645 82.5596C50.5645 82.2236 51.3184 82.0381 52.3262 82.0029L53.4512 81.9619V81.6221C53.4512 81.1729 53.3457 80.8525 53.1348 80.6611C52.9277 80.4697 52.6348 80.374 52.2559 80.374C51.9316 80.374 51.6172 80.4209 51.3125 80.5147C51.0078 80.6084 50.7109 80.7236 50.4219 80.8604L49.9766 79.8877C50.293 79.7197 50.6523 79.583 51.0547 79.4775C51.4609 79.3721 51.8828 79.3193 52.3203 79.3193ZM53.4453 82.8291L52.6074 82.8584C51.9199 82.8818 51.4375 82.999 51.1602 83.21C50.8828 83.4209 50.7441 83.71 50.7441 84.0772C50.7441 84.3975 50.8398 84.6318 51.0313 84.7803C51.2227 84.9248 51.4746 84.9971 51.7871 84.9971C52.2637 84.9971 52.6582 84.8623 52.9707 84.5928C53.2871 84.3193 53.4453 83.9189 53.4453 83.3916V82.8291ZM58.7099 88.8115C57.8309 88.8115 57.1571 88.6533 56.6884 88.3369C56.2196 88.0205 55.9852 87.5772 55.9852 87.0068C55.9852 86.6084 56.1102 86.2705 56.3602 85.9932C56.6102 85.7197 56.9677 85.5303 57.4325 85.4248C57.2567 85.3467 57.1044 85.2256 56.9755 85.0615C56.8505 84.8936 56.788 84.708 56.788 84.5049C56.788 84.2627 56.8563 84.0557 56.9931 83.8838C57.1298 83.7119 57.3349 83.5459 57.6083 83.3857C57.2684 83.2412 56.995 83.0068 56.788 82.6826C56.5849 82.3545 56.4833 81.9697 56.4833 81.5283C56.4833 81.0596 56.5829 80.6611 56.7821 80.333C56.9813 80.001 57.2724 79.749 57.6552 79.5772C58.038 79.4014 58.5009 79.3135 59.0438 79.3135C59.161 79.3135 59.288 79.3213 59.4247 79.3369C59.5653 79.3486 59.6942 79.3643 59.8114 79.3838C59.9325 79.3994 60.0243 79.417 60.0868 79.4365H62.3309V80.2041L61.2294 80.4092C61.3349 80.5576 61.4188 80.7275 61.4813 80.9189C61.5438 81.1064 61.5751 81.3115 61.5751 81.5342C61.5751 82.2061 61.3427 82.7354 60.8778 83.1221C60.4169 83.5049 59.7802 83.6963 58.9677 83.6963C58.7724 83.6885 58.5829 83.6729 58.3993 83.6494C58.2587 83.7354 58.1513 83.8311 58.077 83.9365C58.0028 84.0381 57.9657 84.1533 57.9657 84.2822C57.9657 84.3877 58.0028 84.4736 58.077 84.54C58.1513 84.6025 58.2606 84.6494 58.4052 84.6807C58.5536 84.7119 58.7333 84.7275 58.9442 84.7275H60.0634C60.7743 84.7275 61.3173 84.8779 61.6923 85.1787C62.0673 85.4795 62.2548 85.9209 62.2548 86.5029C62.2548 87.2412 61.9501 87.8096 61.3407 88.208C60.7313 88.6104 59.8544 88.8115 58.7099 88.8115ZM58.7626 87.8447C59.2431 87.8447 59.6474 87.7979 59.9755 87.7041C60.3036 87.6104 60.5516 87.4756 60.7196 87.2998C60.8876 87.1279 60.9716 86.9229 60.9716 86.6846C60.9716 86.4736 60.9188 86.3115 60.8134 86.1982C60.7079 86.085 60.5497 86.0068 60.3388 85.9639C60.1278 85.9209 59.8661 85.8994 59.5536 85.8994H58.5341C58.2802 85.8994 58.0556 85.9385 57.8602 86.0166C57.6649 86.0986 57.5126 86.2158 57.4032 86.3682C57.2977 86.5205 57.245 86.7041 57.245 86.9189C57.245 87.2158 57.3759 87.4443 57.6376 87.6045C57.9032 87.7647 58.2782 87.8447 58.7626 87.8447ZM59.0321 82.7939C59.4345 82.7939 59.7333 82.6846 59.9286 82.4658C60.1239 82.2432 60.2216 81.9307 60.2216 81.5283C60.2216 81.0908 60.12 80.7627 59.9169 80.5439C59.7177 80.3252 59.4208 80.2158 59.0263 80.2158C58.6395 80.2158 58.3446 80.3272 58.1415 80.5498C57.9423 80.7725 57.8427 81.1025 57.8427 81.54C57.8427 81.9346 57.9423 82.2432 58.1415 82.4658C58.3446 82.6846 58.6415 82.7939 59.0321 82.7939ZM66.2185 79.3193C66.7966 79.3193 67.2927 79.4385 67.7068 79.6768C68.1209 79.915 68.4392 80.2529 68.6619 80.6904C68.8845 81.1279 68.9959 81.6514 68.9959 82.2607V82.999H64.6658C64.6814 83.6279 64.8494 84.1123 65.1697 84.4522C65.4939 84.792 65.947 84.9619 66.5291 84.9619C66.9431 84.9619 67.3142 84.9229 67.6423 84.8447C67.9744 84.7627 68.3162 84.6436 68.6677 84.4873V85.6064C68.3435 85.7588 68.0134 85.8701 67.6775 85.9404C67.3416 86.0107 66.9392 86.0459 66.4705 86.0459C65.8338 86.0459 65.2732 85.9229 64.7888 85.6768C64.3084 85.4268 63.9314 85.0557 63.658 84.5635C63.3884 84.0713 63.2537 83.46 63.2537 82.7295C63.2537 82.0029 63.3767 81.3857 63.6228 80.8779C63.8689 80.3701 64.2146 79.9834 64.6599 79.7178C65.1052 79.4522 65.6248 79.3193 66.2185 79.3193ZM66.2185 80.3564C65.7849 80.3564 65.4334 80.4971 65.1638 80.7783C64.8982 81.0596 64.742 81.4717 64.6951 82.0147H67.6482C67.6443 81.6904 67.5896 81.4033 67.4841 81.1533C67.3826 80.9033 67.2263 80.708 67.0154 80.5674C66.8084 80.4268 66.5427 80.3564 66.2185 80.3564Z" fill="#333333"></path> <rect x="35.5004" y="23.6001" width="32" height="32" rx="3.5" fill="white"></rect> <rect x="35.5004" y="23.6001" width="32" height="32" rx="3.5" fill="#1A5FFA" fill-opacity="0.1"></rect> <rect x="35.5004" y="23.6001" width="32" height="32" rx="3.5" stroke="#1A5FFA"></rect> <path d="M43.0172 41.0377L35.1 48.533V50.8752C35.1 53.0843 36.8908 54.8752 39.1 54.8752H63.3875C65.5966 54.8752 67.3875 53.0843 67.3875 50.8752V45.6502L58.1625 37.4502L48.6724 45.6502L43.0172 41.0377Z" fill="white"></path> <path d="M67.3876 45.6502L59.0304 37.8215C58.7807 37.5838 58.4421 37.4502 58.0891 37.4502C57.736 37.4502 57.3975 37.5838 57.1478 37.8215L49.7122 44.9023C49.4625 45.1401 49.124 45.2736 48.7709 45.2736C48.4179 45.2736 48.0793 45.1401 47.8296 44.9023L44.3875 41.6245C44.1379 41.3867 43.7993 41.2532 43.4462 41.2532C43.0932 41.2532 42.7546 41.3867 42.505 41.6245L35.6125 48.2127" stroke="#1A5FFA" stroke-linecap="round" stroke-linejoin="round"></path> <path d="M47.0156 35.5156C47.9994 35.5156 48.7969 34.7181 48.7969 33.7344C48.7969 32.7506 47.9994 31.9531 47.0156 31.9531C46.0319 31.9531 45.2344 32.7506 45.2344 33.7344C45.2344 34.7181 46.0319 35.5156 47.0156 35.5156Z" fill="white" stroke="#1A5FFA" stroke-linecap="round" stroke-linejoin="round"></path> <rect x="35.6" y="23.6001" width="32" height="32" rx="3.5" stroke="#1A5FFA"></rect> <rect x="0.5" y="0.5" width="102" height="102" rx="6.5" stroke="#1A5FFA"></rect> </svg> 