<?xml version="1.0" encoding="UTF-8"?> <svg xmlns="http://www.w3.org/2000/svg" width="168" height="168" viewBox="0 0 168 168" fill="none"> <path d="M65.3409 61.7045C65.2652 60.8712 64.928 60.2235 64.3295 59.7614C63.7386 59.2917 62.8939 59.0568 61.7955 59.0568C61.0682 59.0568 60.4621 59.1515 59.9773 59.3409C59.4924 59.5303 59.1288 59.7917 58.8864 60.125C58.6439 60.4508 58.5189 60.8258 58.5114 61.25C58.4962 61.5985 58.5644 61.9053 58.7159 62.1705C58.875 62.4356 59.1023 62.6705 59.3977 62.875C59.7008 63.072 60.0644 63.2462 60.4886 63.3977C60.9129 63.5492 61.3902 63.6818 61.9205 63.7955L63.9205 64.25C65.072 64.5 66.0871 64.8333 66.9659 65.25C67.8523 65.6667 68.5947 66.1629 69.1932 66.7386C69.7992 67.3144 70.2576 67.9773 70.5682 68.7273C70.8788 69.4773 71.0379 70.3182 71.0455 71.25C71.0379 72.7197 70.6667 73.9811 69.9318 75.0341C69.197 76.0871 68.1402 76.8939 66.7614 77.4545C65.3902 78.0152 63.7348 78.2955 61.7955 78.2955C59.8485 78.2955 58.1515 78.0038 56.7045 77.4205C55.2576 76.8371 54.1326 75.9508 53.3295 74.7614C52.5265 73.572 52.1136 72.0682 52.0909 70.25H57.4773C57.5227 71 57.7235 71.625 58.0795 72.125C58.4356 72.625 58.9242 73.0038 59.5455 73.2614C60.1742 73.5189 60.9015 73.6477 61.7273 73.6477C62.4848 73.6477 63.1288 73.5455 63.6591 73.3409C64.197 73.1364 64.6098 72.8523 64.8977 72.4886C65.1856 72.125 65.3333 71.7083 65.3409 71.2386C65.3333 70.7992 65.197 70.4242 64.9318 70.1136C64.6667 69.7955 64.2576 69.5227 63.7045 69.2955C63.1591 69.0606 62.4621 68.8447 61.6136 68.6477L59.1818 68.0795C57.1667 67.6174 55.5795 66.8712 54.4205 65.8409C53.2614 64.803 52.6856 63.4015 52.6932 61.6364C52.6856 60.197 53.072 58.9356 53.8523 57.8523C54.6326 56.7689 55.7121 55.9242 57.0909 55.3182C58.4697 54.7121 60.0417 54.4091 61.8068 54.4091C63.6098 54.4091 65.1742 54.7159 66.5 55.3295C67.8333 55.9356 68.8674 56.7879 69.6023 57.8864C70.3371 58.9848 70.7121 60.2576 70.7273 61.7045H65.3409ZM94.8923 66.3636C94.8923 68.9242 94.3999 71.0947 93.415 72.875C92.4302 74.6553 91.0968 76.0076 89.415 76.9318C87.7408 77.8561 85.862 78.3182 83.7786 78.3182C81.6877 78.3182 79.8052 77.8523 78.1309 76.9205C76.4567 75.9886 75.1271 74.6364 74.1423 72.8636C73.165 71.0833 72.6764 68.9167 72.6764 66.3636C72.6764 63.803 73.165 61.6326 74.1423 59.8523C75.1271 58.072 76.4567 56.7197 78.1309 55.7955C79.8052 54.8712 81.6877 54.4091 83.7786 54.4091C85.862 54.4091 87.7408 54.8712 89.415 55.7955C91.0968 56.7197 92.4302 58.072 93.415 59.8523C94.3999 61.6326 94.8923 63.803 94.8923 66.3636ZM89.1423 66.3636C89.1423 64.8485 88.9264 63.5682 88.4945 62.5227C88.0703 61.4773 87.4567 60.6856 86.6536 60.1477C85.8582 59.6098 84.8998 59.3409 83.7786 59.3409C82.665 59.3409 81.7067 59.6098 80.9036 60.1477C80.1006 60.6856 79.4832 61.4773 79.0514 62.5227C78.6271 63.5682 78.415 64.8485 78.415 66.3636C78.415 67.8788 78.6271 69.1591 79.0514 70.2045C79.4832 71.25 80.1006 72.0417 80.9036 72.5795C81.7067 73.1174 82.665 73.3864 83.7786 73.3864C84.8998 73.3864 85.8582 73.1174 86.6536 72.5795C87.4567 72.0417 88.0703 71.25 88.4945 70.2045C88.9264 69.1591 89.1423 67.8788 89.1423 66.3636ZM118.341 63.1591H112.66C112.584 62.5758 112.428 62.0492 112.194 61.5795C111.959 61.1098 111.648 60.7083 111.262 60.375C110.875 60.0417 110.417 59.7879 109.887 59.6136C109.364 59.4318 108.785 59.3409 108.148 59.3409C107.019 59.3409 106.046 59.6174 105.228 60.1705C104.417 60.7235 103.792 61.5227 103.353 62.5682C102.921 63.6136 102.705 64.8788 102.705 66.3636C102.705 67.9091 102.925 69.2045 103.364 70.25C103.811 71.2879 104.436 72.072 105.239 72.6023C106.05 73.125 107.008 73.3864 108.114 73.3864C108.735 73.3864 109.3 73.3068 109.807 73.1477C110.322 72.9886 110.773 72.7576 111.16 72.4545C111.553 72.1439 111.875 71.7689 112.125 71.3295C112.383 70.8826 112.561 70.3788 112.66 69.8182L118.341 69.8523C118.243 70.8826 117.944 71.8977 117.444 72.8977C116.951 73.8977 116.273 74.8106 115.41 75.6364C114.546 76.4545 113.493 77.1061 112.25 77.5909C111.016 78.0758 109.599 78.3182 108 78.3182C105.894 78.3182 104.008 77.8561 102.341 76.9318C100.682 76 99.3717 74.6439 98.4095 72.8636C97.4474 71.0833 96.9664 68.9167 96.9664 66.3636C96.9664 63.803 97.455 61.6326 98.4323 59.8523C99.4095 58.072 100.732 56.7197 102.398 55.7955C104.065 54.8712 105.932 54.4091 108 54.4091C109.41 54.4091 110.713 54.6061 111.91 55C113.107 55.3864 114.16 55.9545 115.069 56.7045C115.978 57.447 116.716 58.3598 117.285 59.4432C117.853 60.5265 118.205 61.7652 118.341 63.1591ZM126.47 78V73.9545L134.958 66.5227C135.595 65.947 136.136 65.4205 136.583 64.9432C137.03 64.4583 137.371 63.9735 137.606 63.4886C137.841 62.9962 137.958 62.4621 137.958 61.8864C137.958 61.2424 137.818 60.6932 137.538 60.2386C137.258 59.7765 136.871 59.4205 136.379 59.1705C135.886 58.9205 135.322 58.7955 134.686 58.7955C134.042 58.7955 133.477 58.928 132.992 59.1932C132.508 59.4508 132.129 59.8258 131.856 60.3182C131.591 60.8106 131.458 61.4091 131.458 62.1136H126.129C126.129 60.5303 126.485 59.1629 127.197 58.0114C127.909 56.8598 128.909 55.9735 130.197 55.3523C131.492 54.7235 132.996 54.4091 134.708 54.4091C136.473 54.4091 138.008 54.7045 139.311 55.2955C140.614 55.8864 141.621 56.7121 142.333 57.7727C143.053 58.8258 143.413 60.0492 143.413 61.4432C143.413 62.3295 143.235 63.2083 142.879 64.0795C142.523 64.9508 141.883 65.9129 140.958 66.9659C140.042 68.0189 138.739 69.2803 137.049 70.75L134.265 73.3182V73.4659H143.697V78H126.47ZM52 94.2955V89.7273H71.6705V94.2955H64.6136V113H59.0682V94.2955H52ZM72.2985 89.7273H78.5826L83.5031 99.4659H83.7076L88.6281 89.7273H94.9122L86.4008 105.227V113H80.8099V105.227L72.2985 89.7273ZM96.3101 113V89.7273H105.924C107.666 89.7273 109.17 90.0682 110.435 90.75C111.708 91.4242 112.689 92.3674 113.378 93.5795C114.068 94.7841 114.412 96.1856 114.412 97.7841C114.412 99.3902 114.06 100.795 113.356 102C112.659 103.197 111.662 104.125 110.367 104.784C109.071 105.443 107.534 105.773 105.753 105.773H99.8215V101.341H104.708C105.556 101.341 106.265 101.193 106.833 100.898C107.409 100.602 107.844 100.189 108.14 99.6591C108.435 99.1212 108.583 98.4962 108.583 97.7841C108.583 97.0644 108.435 96.4432 108.14 95.9205C107.844 95.3902 107.409 94.9811 106.833 94.6932C106.257 94.4053 105.549 94.2614 104.708 94.2614H101.935V113H96.3101ZM116.225 113V89.7273H132.452V94.2955H121.85V99.0682H131.623V103.648H121.85V108.432H132.452V113H116.225ZM146.555 89.7273V113H140.93V89.7273H146.555ZM154.751 89.7273V113H149.126V89.7273H154.751Z" fill="#6D7580"></path> <path d="M37 63H17C16.4477 63 16 63.4477 16 64V78C16 78.5523 16.4477 79 17 79H37C37.5523 79 38 78.5523 38 78V64C38 63.4477 37.5523 63 37 63Z" fill="#DADEE3" stroke="#DADEE3" stroke-width="2" stroke-linecap="round" stroke-linejoin="round"></path> <path d="M22.5 63V58.5C22.5 57.3065 22.9741 56.1619 23.818 55.318C24.6619 54.4741 25.8065 54 27 54C28.1935 54 29.3381 54.4741 30.182 55.318C31.0259 56.1619 31.5 57.3065 31.5 58.5V63" stroke="#DADEE3" stroke-width="2" stroke-linecap="round" stroke-linejoin="round"></path> <path d="M27 72.5C27.8284 72.5 28.5 71.8284 28.5 71C28.5 70.1716 27.8284 69.5 27 69.5C26.1716 69.5 25.5 70.1716 25.5 71C25.5 71.8284 26.1716 72.5 27 72.5Z" fill="white"></path> <path d="M38 93.0006L24 107L17 100.001" stroke="#DADEE3" stroke-width="5" stroke-linecap="round" stroke-linejoin="round"></path> <rect x="13" y="124" width="144" height="2" fill="#6D7580"></rect> <rect x="13" y="39" width="144" height="2" fill="#6D7580"></rect> </svg> 