<?xml version="1.0" encoding="UTF-8"?> <svg xmlns="http://www.w3.org/2000/svg" width="34" height="34" viewBox="0 0 34 34" fill="none"> <rect width="34" height="34" rx="6" fill="#DADEE3"></rect> <path d="M17 14.75V17H10.25C9.65326 17 9.08096 16.7629 8.65901 16.341C8.23705 15.919 8 15.3467 8 14.75C8 14.1533 8.23705 13.581 8.65901 13.159C9.08096 12.7371 9.65326 12.5 10.25 12.5H14.75C15.3467 12.5 15.919 12.7371 16.341 13.159C16.7629 13.581 17 14.1533 17 14.75H17Z" stroke="white" stroke-width="2" stroke-linecap="round" stroke-linejoin="round"></path> <path d="M17 12.5H14.75C14.1533 12.5 13.581 12.2629 13.159 11.841C12.7371 11.419 12.5 10.8467 12.5 10.25C12.5 9.65326 12.7371 9.08097 13.159 8.65901C13.581 8.23705 14.1533 8 14.75 8V8C15.3467 8 15.919 8.23705 16.341 8.65901C16.7629 9.08097 17 9.65326 17 10.25V12.5Z" stroke="white" stroke-width="2" stroke-linecap="round" stroke-linejoin="round"></path> <path d="M19.25 17H17V10.25C17 9.65326 17.2371 9.08097 17.659 8.65901C18.081 8.23705 18.6533 8 19.25 8C19.8467 8 20.419 8.23705 20.841 8.65901C21.2629 9.08097 21.5 9.65326 21.5 10.25V14.75C21.5 15.3467 21.2629 15.919 20.841 16.341C20.419 16.763 19.8467 17 19.25 17V17Z" stroke="white" stroke-width="2" stroke-linecap="round" stroke-linejoin="round"></path> <path d="M21.5 17V14.75C21.5 14.1533 21.7371 13.581 22.159 13.159C22.581 12.7371 23.1533 12.5 23.75 12.5V12.5C24.3467 12.5 24.919 12.7371 25.341 13.159C25.7629 13.581 26 14.1533 26 14.75V14.75C26 15.3467 25.7629 15.919 25.341 16.341C24.919 16.7629 24.3467 17 23.75 17H21.5Z" stroke="white" stroke-width="2" stroke-linecap="round" stroke-linejoin="round"></path> <path d="M17 19.25V17H23.75C24.3467 17 24.919 17.2371 25.341 17.659C25.763 18.081 26 18.6533 26 19.25V19.25C26 19.8467 25.763 20.419 25.341 20.841C24.919 21.2629 24.3467 21.5 23.75 21.5H19.25C18.6533 21.5 18.081 21.2629 17.659 20.841C17.2371 20.419 17 19.8467 17 19.25H17Z" stroke="white" stroke-width="2" stroke-linecap="round" stroke-linejoin="round"></path> <path d="M17 21.5H19.25C19.8467 21.5 20.419 21.7371 20.841 22.159C21.2629 22.581 21.5 23.1533 21.5 23.75V23.75C21.5 24.3467 21.2629 24.919 20.841 25.341C20.419 25.7629 19.8467 26 19.25 26V26C18.6533 26 18.081 25.7629 17.659 25.341C17.2371 24.919 17 24.3467 17 23.75V21.5Z" stroke="white" stroke-width="2" stroke-linecap="round" stroke-linejoin="round"></path> <path d="M14.75 17H17V23.75C17 24.3467 16.7629 24.919 16.341 25.341C15.919 25.7629 15.3467 26 14.75 26V26C14.1533 26 13.581 25.7629 13.159 25.341C12.7371 24.919 12.5 24.3467 12.5 23.75V19.25C12.5 18.6533 12.7371 18.081 13.159 17.659C13.581 17.2371 14.1533 17 14.75 17V17Z" stroke="white" stroke-width="2" stroke-linecap="round" stroke-linejoin="round"></path> <path d="M12.5 17V19.25C12.5 19.8467 12.2629 20.419 11.841 20.841C11.419 21.2629 10.8467 21.5 10.25 21.5C9.65326 21.5 9.08097 21.2629 8.65901 20.841C8.23705 20.419 8 19.8467 8 19.25V19.25C8 18.6533 8.23705 18.081 8.65901 17.659C9.08097 17.2371 9.65326 17 10.25 17H12.5Z" stroke="white" stroke-width="2" stroke-linecap="round" stroke-linejoin="round"></path> </svg> 