<?xml version="1.0" encoding="UTF-8"?> <svg xmlns="http://www.w3.org/2000/svg" width="194" height="58" viewBox="0 0 194 58" fill="none"> <path fill-rule="evenodd" clip-rule="evenodd" d="M18.1705 5.04854L0.940593 2.9058C0.816126 2.90115 0.694461 2.86874 0.585124 2.81109C0.475786 2.75344 0.381743 2.67213 0.310355 2.57352C0.238968 2.4749 0.192174 2.36166 0.173637 2.24267C0.155099 2.12367 0.165322 2.00214 0.203503 1.8876C0.424498 1.33368 0.813962 0.857418 1.32061 0.52152C1.82726 0.185622 2.42733 0.0058437 3.0418 0.00585938L21.3056 0.00585938C22.1121 0.00671226 22.8852 0.316589 23.4555 0.8675C24.0257 1.41841 24.3465 2.16536 24.3474 2.94447V20.589C24.3465 21.3681 24.0257 22.1151 23.4555 22.666C22.8852 23.2169 22.1121 23.5268 21.3056 23.5276C21.2216 23.5279 21.1406 23.4975 21.0787 23.4425C21.0169 23.3876 20.9788 23.3121 20.9721 23.2312L19.4912 6.38251C19.4621 6.04781 19.3151 5.73286 19.0748 5.49013C18.8344 5.2474 18.5153 5.09155 18.1705 5.04854ZM15.7524 7.71004C15.9833 7.73639 16.1974 7.83956 16.3581 8.00184C16.5188 8.16413 16.6159 8.37539 16.6329 8.59936L17.8503 22.4546C17.8643 22.5895 17.8489 22.7256 17.8049 22.8543C17.7609 22.983 17.6894 23.1013 17.5951 23.2016C17.5008 23.3018 17.3856 23.3818 17.2572 23.4363C17.1288 23.4908 16.99 23.5186 16.8497 23.518H15.2388C14.9857 23.5186 14.7417 23.4266 14.556 23.2603C14.3703 23.0941 14.2568 22.8661 14.2382 22.6222L13.4044 13.2425C13.3747 12.9058 13.2258 12.5894 12.9828 12.3464C12.7398 12.1034 12.4175 11.9488 12.0703 11.9085L0.883894 10.5069C0.63924 10.4791 0.413783 10.3651 0.250701 10.1868C0.087618 10.0084 -0.00162809 9.7782 5.34264e-05 9.54023V6.85295C-0.00143863 6.71346 0.0283374 6.57531 0.0873365 6.44799C0.146336 6.32066 0.23316 6.20719 0.341847 6.11535C0.450534 6.02351 0.578508 5.95549 0.71698 5.91595C0.855452 5.87641 1.00114 5.8663 1.14404 5.8863L15.7524 7.71004ZM5.34264e-05 14.4766C-0.00143863 14.3371 0.0283374 14.1989 0.0873365 14.0716C0.146336 13.9443 0.23316 13.8308 0.341847 13.739C0.450534 13.6471 0.578508 13.5791 0.71698 13.5396C0.855452 13.5 1.00114 13.4899 1.14404 13.5099L9.67227 14.57C9.90403 14.5982 10.1183 14.7039 10.2779 14.8686C10.4375 15.0334 10.5324 15.2469 10.5461 15.4722L11.1598 22.4643C11.1738 22.5991 11.1583 22.7353 11.1144 22.864C11.0704 22.9926 10.9989 23.111 10.9046 23.2112C10.8102 23.3115 10.6951 23.3915 10.5667 23.446C10.4383 23.5005 10.2995 23.5283 10.1592 23.5276H3.0418C2.23535 23.5268 1.46218 23.2169 0.891935 22.666C0.321688 22.1151 0.000936241 21.3681 5.34264e-05 20.589V14.4766Z" fill="#6D7580"></path> <path d="M50.3889 17.9301C50.0554 18.1882 49.6722 18.3798 49.2616 18.494C48.7528 18.6378 48.2241 18.7052 47.694 18.6938C47.0314 18.7122 46.3706 18.6162 45.7429 18.4102C45.5019 18.3375 45.2816 18.2117 45.0993 18.0429C44.917 17.8741 44.7777 17.6667 44.6923 17.4371C43.9141 15.2546 43.2526 13.4416 42.7078 11.9981C42.1609 10.5546 41.7273 9.30117 41.4138 8.24753H41.267C41.1936 9.70394 41.1325 11.0358 41.0836 12.243C41.0346 13.4502 40.9924 14.6317 40.9568 15.7874C40.9201 16.9377 40.8768 18.0977 40.8301 19.2738C40.7834 20.4498 40.72 21.7387 40.6467 23.1403C40.2959 23.254 39.937 23.3423 39.5727 23.4046C39.1095 23.4868 38.6395 23.5278 38.1686 23.527C37.3963 23.5669 36.6273 23.4031 35.944 23.0533C35.4103 22.7311 35.1435 22.1898 35.1435 21.4133C35.1435 20.9686 35.1435 20.3532 35.1969 19.567C35.2502 18.7808 35.2836 17.8753 35.3436 16.8539C35.4036 15.8325 35.477 14.737 35.5604 13.5609C35.6438 12.3848 35.7305 11.1958 35.8172 9.98749C35.9039 8.77918 35.9806 7.58054 36.054 6.39479C36.1274 5.20903 36.2008 4.11028 36.2741 3.10174C36.6038 2.739 37.0067 2.44515 37.4582 2.2382C38.2368 1.88471 39.0937 1.72203 39.9529 1.76454C40.8836 1.71961 41.8111 1.90015 42.6511 2.28976C43.3411 2.68097 43.8692 3.29138 44.1453 4.01683C44.4155 4.66127 44.6923 5.36047 44.9858 6.14668C45.2793 6.93289 45.5695 7.73843 45.8596 8.56008C46.1498 9.38173 46.4366 10.1969 46.7168 11.0089C46.997 11.8209 47.2571 12.562 47.5006 13.2451H47.694C48.3744 11.1786 49.0548 9.17658 49.7352 7.23899C50.4156 5.3014 51.0104 3.67528 51.5196 2.36064C51.9329 2.17284 52.3671 2.03122 52.8136 1.93854C53.382 1.81795 53.9627 1.75958 54.5446 1.76454C55.4438 1.72771 56.3403 1.88397 57.1695 2.22209C57.4623 2.33583 57.7219 2.5172 57.9254 2.75032C58.1289 2.98344 58.2702 3.2612 58.3368 3.55929C58.4324 4.02972 58.5436 4.74612 58.6703 5.70847C58.7971 6.67082 58.9182 7.77709 59.0339 9.02729C59.1539 10.271 59.2751 11.5803 59.3974 12.9551C59.5208 14.3277 59.6275 15.6553 59.7309 16.9345C59.8343 18.2137 59.911 19.3833 59.9844 20.437C60.0578 21.4906 60.1045 22.3155 60.1312 22.9051C59.7664 23.1141 59.3736 23.2735 58.9638 23.3788C58.4503 23.4952 57.9236 23.5483 57.3963 23.5367C56.6842 23.5564 55.9776 23.4117 55.3351 23.1146C54.7659 22.8332 54.4568 22.2811 54.4079 21.4584C54.2367 18.7346 54.1255 16.2406 54.0744 13.9765C54.0232 11.7124 53.9498 9.84787 53.8542 8.38286H53.6708C53.3817 9.36884 52.9626 10.6137 52.4134 12.1173C51.8642 13.621 51.1894 15.5586 50.3889 17.9301Z" fill="#6D7580"></path> <path d="M71.1342 5.77892C72.2927 5.76857 73.4484 5.89298 74.5762 6.14946C75.5265 6.36073 76.4249 6.7493 77.221 7.29333C77.9453 7.80709 78.5273 8.48553 78.9153 9.26852C79.3344 10.1509 79.5397 11.1141 79.5157 12.0847V20.0434C79.5442 20.5727 79.3697 21.0936 79.0254 21.5063C78.687 21.8781 78.2868 22.1928 77.8414 22.4375C76.983 22.925 76.0462 23.2703 75.0698 23.4589C73.8472 23.7072 72.6002 23.8261 71.351 23.8133C68.8495 23.8133 66.8573 23.3494 65.3742 22.4214C63.8911 21.4934 63.1496 20.0789 63.1496 18.1778C63.1496 16.556 63.6477 15.323 64.6438 14.4787C65.6399 13.6345 67.1708 13.1061 69.2364 12.8934L74.0859 12.4005V12.0138C74.1049 11.6797 74.0261 11.3471 73.8586 11.0542C73.6911 10.7613 73.4416 10.5199 73.1387 10.3576C72.505 10.0053 71.5933 9.82917 70.4038 9.82917C69.4886 9.82927 68.5769 9.93748 67.6889 10.1514C66.8748 10.339 66.0765 10.5857 65.3008 10.8893C64.9793 10.6694 64.722 10.3731 64.5537 10.0289C64.3477 9.64242 64.2413 9.21353 64.2436 8.77875C64.2436 7.74443 64.8005 7.00334 65.9112 6.55868C66.7062 6.27921 67.5304 6.08472 68.3693 5.97869C69.2848 5.84891 70.2088 5.78216 71.1342 5.77892V5.77892ZM71.351 19.834C71.8845 19.8335 72.4166 19.7795 72.9386 19.6729C73.3545 19.6063 73.7552 19.47 74.1226 19.2701V16.0286L71.1208 16.2767C70.4637 16.3106 69.8225 16.4844 69.2431 16.7858C69.0194 16.9044 68.8344 17.0809 68.7089 17.2955C68.5834 17.5101 68.5223 17.7543 68.5327 18.0006C68.5242 18.2593 68.5804 18.5163 68.6965 18.7496C68.8126 18.9829 68.9853 19.1858 69.1997 19.341C69.6378 19.6696 70.3548 19.834 71.351 19.834Z" fill="#6D7580"></path> <path d="M89.1412 23.2044C88.8064 23.293 88.4653 23.3576 88.1206 23.3977C87.6374 23.4585 87.1505 23.4876 86.6631 23.4847C85.5692 23.4847 84.7787 23.315 84.2918 22.9756C83.8048 22.6341 83.5647 21.9703 83.5647 20.9843V10.2545C83.5459 9.65276 83.7245 9.06068 84.075 8.56288C84.4537 8.05971 84.9378 7.63923 85.4958 7.3288C86.396 6.82229 87.3695 6.44869 88.3841 6.22037C89.5495 5.942 90.7457 5.80241 91.9462 5.80472C94.4743 5.80472 95.7384 6.62744 95.7384 8.27289C95.7431 8.64319 95.6822 9.01154 95.5583 9.36198C95.4528 9.65655 95.3176 9.94039 95.1547 10.2094C94.4828 10.0802 93.7985 10.0208 93.1135 10.0322C92.401 10.0338 91.6912 10.1171 90.999 10.2803C90.3517 10.4278 89.7272 10.6564 89.1412 10.9602V23.2044Z" fill="#6D7580"></path> <path d="M108.729 14.5498L115.023 20.4657C114.964 21.2923 114.64 22.0806 114.096 22.7212C113.82 22.9938 113.486 23.2057 113.118 23.3425C112.749 23.4793 112.355 23.5377 111.961 23.5138C111.305 23.527 110.66 23.3557 110.103 23.0208C109.428 22.5718 108.826 22.0289 108.316 21.4098L103.976 16.438V23.2045C103.642 23.2935 103.301 23.3581 102.956 23.3978C102.473 23.4586 101.986 23.4877 101.498 23.4848C100.404 23.4848 99.615 23.3151 99.1303 22.9757C98.6455 22.6363 98.3987 21.9758 98.3898 20.9941V0.327164C98.6567 0.256276 99.0102 0.188611 99.4471 0.117724C99.9322 0.040816 100.423 0.00309358 100.915 0.00494799C102.009 0.00494799 102.792 0.181093 103.266 0.533382C103.74 0.885671 103.976 1.55481 103.976 2.54079V12.5069L110.577 6.02716C111.548 5.97983 112.508 6.24005 113.312 6.76826C113.623 6.96989 113.879 7.24204 114.057 7.56101C114.235 7.87999 114.329 8.23613 114.332 8.59845C114.34 9.21787 114.101 9.81651 113.665 10.2707C113.005 10.9525 112.306 11.5979 111.571 12.204L108.729 14.5498Z" fill="#6D7580"></path> <path d="M122.097 17.0148C122.231 17.4632 122.458 17.8805 122.765 18.2411C123.072 18.6018 123.452 18.8982 123.881 19.1124C124.803 19.5375 125.815 19.7483 126.836 19.7278C127.81 19.7394 128.781 19.6079 129.714 19.3379C130.479 19.1252 131.214 18.8233 131.902 18.439C132.268 18.673 132.579 18.9794 132.813 19.3379C133.055 19.7057 133.181 20.1332 133.176 20.5688C133.187 21.0821 133.006 21.5819 132.666 21.9769C132.282 22.4082 131.804 22.7516 131.265 22.9822C130.592 23.2734 129.88 23.475 129.151 23.5815C128.268 23.715 127.376 23.7796 126.483 23.7749C125.131 23.7938 123.785 23.6012 122.497 23.2045C121.338 22.8502 120.269 22.2627 119.362 21.4807C118.463 20.6829 117.759 19.7023 117.301 18.6097C116.777 17.3207 116.523 15.944 116.554 14.5595C116.52 13.2166 116.774 11.8815 117.301 10.6381C117.754 9.59312 118.437 8.65547 119.302 7.88961C120.134 7.16378 121.114 6.6149 122.18 6.27853C123.257 5.93783 124.382 5.76489 125.515 5.7662C126.676 5.75384 127.83 5.93927 128.924 6.31397C129.91 6.64765 130.817 7.16798 131.592 7.8445C132.335 8.50488 132.925 9.30982 133.323 10.2063C133.745 11.1567 133.956 12.1818 133.944 13.2158C133.968 13.5235 133.925 13.8328 133.819 14.1236C133.712 14.4144 133.543 14.6804 133.323 14.9042C132.831 15.316 132.222 15.5743 131.575 15.6453L122.097 17.0148ZM125.559 9.76168C124.598 9.7303 123.662 10.0647 122.954 10.6929C122.26 11.3137 121.852 12.2116 121.73 13.3866L128.694 12.2975C128.626 11.6466 128.331 11.0375 127.857 10.5704C127.346 10.0291 126.579 9.76168 125.559 9.76168V9.76168Z" fill="#6D7580"></path> <path d="M144.223 5.77892C145.382 5.76856 146.539 5.89297 147.668 6.14947C148.618 6.36073 149.517 6.7493 150.313 7.29333C151.037 7.80709 151.619 8.48553 152.007 9.26852C152.426 10.1509 152.632 11.1141 152.608 12.0847V20.0434C152.636 20.5727 152.462 21.0936 152.117 21.5063C151.778 21.8781 151.376 22.1928 150.93 22.4375C150.073 22.9251 149.137 23.2704 148.162 23.4589C146.939 23.7072 145.692 23.8261 144.443 23.8133C141.939 23.8133 139.946 23.3493 138.463 22.4214C136.98 21.4934 136.239 20.0789 136.242 18.1778C136.242 16.556 136.74 15.323 137.736 14.4787C138.732 13.6345 140.263 13.1061 142.328 12.8934L147.178 12.4005V12.0138C147.197 11.6793 147.118 11.3463 146.95 11.0533C146.781 10.7603 146.531 10.5192 146.227 10.3576C145.597 10.0064 144.683 9.82917 143.496 9.82917C142.579 9.82926 141.667 9.93747 140.777 10.1514C139.964 10.3395 139.165 10.5861 138.389 10.8893C138.069 10.6686 137.812 10.3724 137.642 10.0289C137.436 9.64242 137.33 9.21353 137.332 8.77875C137.332 7.74551 137.888 7.00549 139 6.55868C139.796 6.27886 140.621 6.08436 141.461 5.97869C142.376 5.84893 143.299 5.78217 144.223 5.77892V5.77892ZM144.443 19.834C144.975 19.8337 145.506 19.7797 146.027 19.6729C146.443 19.6069 146.844 19.4706 147.211 19.2701V16.0286L144.209 16.2767C143.552 16.311 142.911 16.4848 142.332 16.7858C142.108 16.9044 141.923 17.0809 141.797 17.2955C141.672 17.5101 141.611 17.7543 141.621 18.0006C141.613 18.2593 141.669 18.5163 141.785 18.7496C141.901 18.9829 142.074 19.1858 142.288 19.341C142.729 19.6696 143.447 19.834 144.443 19.834V19.834Z" fill="#6D7580"></path> <path d="M156.233 22.1926C156.023 21.7764 155.918 21.3183 155.926 20.8554C155.924 20.4087 156.029 19.9676 156.233 19.5666C156.447 19.1451 156.71 18.7484 157.017 18.384L163.871 10.4962H156.653C156.508 10.2039 156.38 9.90379 156.27 9.59722C156.134 9.21806 156.066 8.81918 156.07 8.41791C156.07 7.66715 156.246 7.12905 156.6 6.80683C156.783 6.64138 156.998 6.51262 157.233 6.428C157.467 6.34338 157.717 6.30458 157.967 6.31384H169.487C169.825 6.61905 170.108 6.97617 170.324 7.37071C170.552 7.79546 170.667 8.26831 170.658 8.74657C170.655 9.18074 170.549 9.60844 170.348 9.99677C170.134 10.4175 169.871 10.8131 169.564 11.1761L162.813 19.0929H170.485C170.657 19.3681 170.791 19.6638 170.885 19.9726C171.006 20.3492 171.068 20.7413 171.068 21.1358C171.068 21.8855 170.891 22.4225 170.538 22.7469C170.355 22.9126 170.14 23.0415 169.906 23.1262C169.671 23.2108 169.421 23.2495 169.17 23.2398H157.054C156.717 22.941 156.439 22.5863 156.233 22.1926Z" fill="#6D7580"></path> <path d="M178.489 17.0147C178.624 17.4634 178.852 17.8808 179.159 18.2414C179.467 18.6021 179.847 18.8984 180.277 19.1124C181.198 19.5371 182.208 19.7479 183.229 19.7278C184.203 19.739 185.173 19.6075 186.107 19.3379C186.87 19.1252 187.604 18.8234 188.291 18.4389C188.66 18.6717 188.973 18.9782 189.209 19.3379C189.45 19.7057 189.577 20.1332 189.572 20.5688C189.582 21.0821 189.401 21.5819 189.062 21.9769C188.677 22.409 188.198 22.7525 187.658 22.9822C186.984 23.2738 186.273 23.4755 185.543 23.5815C184.661 23.7151 183.768 23.7798 182.875 23.7748C181.523 23.7932 180.177 23.6006 178.889 23.2045C177.731 22.8486 176.663 22.2612 175.754 21.4807C174.856 20.6836 174.153 19.7027 173.696 18.6097C173.172 17.3207 172.918 15.944 172.949 14.5595C172.916 13.2165 173.17 11.8814 173.696 10.6381C174.15 9.593 174.833 8.65531 175.698 7.88958C176.531 7.16337 177.512 6.61447 178.579 6.2785C179.656 5.93748 180.782 5.76454 181.914 5.76618C183.075 5.75409 184.229 5.93951 185.323 6.31395C186.308 6.64919 187.215 7.16934 187.991 7.84447C188.734 8.50486 189.324 9.3098 189.722 10.2063C190.143 11.1569 190.353 12.182 190.339 13.2158C190.364 13.5235 190.321 13.8327 190.214 14.1236C190.108 14.4144 189.939 14.6803 189.719 14.9042C189.226 15.3165 188.616 15.5749 187.968 15.6453L178.489 17.0147ZM181.954 9.76166C180.992 9.72942 180.056 10.0639 179.346 10.6929C178.653 11.3137 178.246 12.2116 178.126 13.3866L185.106 12.2975C185.037 11.6463 184.741 11.0371 184.266 10.5704C183.739 10.0291 182.975 9.76166 181.954 9.76166V9.76166Z" fill="#6D7580"></path> <path d="M3.79102 57.6895L0.884766 50.0957H0.837891C0.892578 50.6973 0.919922 51.4121 0.919922 52.2402V57.6895H0V49.123H1.5L4.21289 56.1895H4.25977L6.99609 49.123H8.48438V57.6895H7.48828V52.1699C7.48828 51.5371 7.51562 50.8496 7.57031 50.1074H7.52344L4.59375 57.6895H3.79102Z" fill="#6D7580"></path> <path d="M19.3446 57.6895L18.2782 54.9648H14.8446L13.7899 57.6895H12.7821L16.1688 49.0879H17.0067L20.3759 57.6895H19.3446ZM17.9677 54.0684L16.9716 51.4141C16.8427 51.0781 16.7098 50.666 16.5731 50.1777C16.4872 50.5527 16.3641 50.9648 16.204 51.4141L15.1962 54.0684H17.9677Z" fill="#6D7580"></path> <path d="M25.6697 54.127V57.6895H24.6736V49.123H27.0232C28.074 49.123 28.8494 49.3242 29.3494 49.7266C29.8533 50.1289 30.1052 50.7344 30.1052 51.543C30.1052 52.6758 29.531 53.4414 28.3826 53.8398L30.7087 57.6895H29.531L27.4568 54.127H25.6697ZM25.6697 53.2715H27.0349C27.738 53.2715 28.2537 53.1328 28.5818 52.8555C28.9099 52.5742 29.074 52.1543 29.074 51.5957C29.074 51.0293 28.906 50.6211 28.5701 50.3711C28.238 50.1211 27.7029 49.9961 26.9646 49.9961H25.6697V53.2715Z" fill="#6D7580"></path> <path d="M41.3991 57.6895H40.2272L37.1041 53.5352L36.2077 54.332V57.6895H35.2116V49.123H36.2077V53.3711L40.0924 49.123H41.2702L37.8248 52.8438L41.3991 57.6895Z" fill="#6D7580"></path> <path d="M50.478 57.6895H45.7027V49.123H50.478V50.0078H46.6987V52.7676H50.2495V53.6465H46.6987V56.7988H50.478V57.6895Z" fill="#6D7580"></path> <path d="M58.1391 57.6895H57.143V50.0078H54.4301V49.123H60.852V50.0078H58.1391V57.6895Z" fill="#6D7580"></path> <path d="M65.2669 57.6895V49.123H66.263V57.6895H65.2669Z" fill="#6D7580"></path> <path d="M78.4298 57.6895H77.2931L72.6115 50.5H72.5646C72.6271 51.3438 72.6584 52.1172 72.6584 52.8203V57.6895H71.7384V49.123H72.8634L77.5334 56.2832H77.5802C77.5724 56.1777 77.5548 55.8398 77.5275 55.2695C77.5002 54.6953 77.4904 54.2852 77.4982 54.0391V49.123H78.4298V57.6895Z" fill="#6D7580"></path> <path d="M87.6729 53.2012H90.585V57.3672C90.1319 57.5117 89.6709 57.6211 89.2022 57.6953C88.7334 57.7695 88.1905 57.8066 87.5733 57.8066C86.2764 57.8066 85.2666 57.4219 84.544 56.6523C83.8213 55.8789 83.46 54.7969 83.46 53.4062C83.46 52.5156 83.6377 51.7363 83.9932 51.0684C84.3526 50.3965 84.8682 49.8848 85.5401 49.5332C86.212 49.1777 86.9991 49 87.9014 49C88.8155 49 89.667 49.168 90.4561 49.5039L90.0694 50.3828C89.2959 50.0547 88.5518 49.8906 87.837 49.8906C86.794 49.8906 85.9795 50.2012 85.3936 50.8223C84.8077 51.4434 84.5147 52.3047 84.5147 53.4062C84.5147 54.5625 84.7959 55.4395 85.3584 56.0371C85.9248 56.6348 86.7549 56.9336 87.8487 56.9336C88.4424 56.9336 89.0225 56.8652 89.5889 56.7285V54.0918H87.6729V53.2012Z" fill="#6D7580"></path> <path d="M105.796 57.6895L102.889 50.0957H102.843C102.897 50.6973 102.925 51.4121 102.925 52.2402V57.6895H102.005V49.123H103.505L106.218 56.1895H106.264L109.001 49.123H110.489V57.6895H109.493V52.1699C109.493 51.5371 109.52 50.8496 109.575 50.1074H109.528L106.598 57.6895H105.796Z" fill="#6D7580"></path> <path d="M121.349 57.6895L120.283 54.9648H116.849L115.795 57.6895H114.787L118.174 49.0879H119.011L122.381 57.6895H121.349ZM119.972 54.0684L118.976 51.4141C118.847 51.0781 118.715 50.666 118.578 50.1777C118.492 50.5527 118.369 50.9648 118.209 51.4141L117.201 54.0684H119.972Z" fill="#6D7580"></path> <path d="M133.516 53.3242C133.516 54.7383 133.131 55.8203 132.362 56.5703C131.596 57.3164 130.493 57.6895 129.051 57.6895H126.678V49.123H129.303C130.635 49.123 131.67 49.4922 132.409 50.2305C133.147 50.9688 133.516 52 133.516 53.3242ZM132.461 53.3594C132.461 52.2422 132.18 51.4004 131.618 50.834C131.059 50.2676 130.227 49.9844 129.122 49.9844H127.674V56.8281H128.887C130.075 56.8281 130.967 56.5371 131.565 55.9551C132.163 55.3691 132.461 54.5039 132.461 53.3594Z" fill="#6D7580"></path> <path d="M143.328 57.6895H138.552V49.123H143.328V50.0078H139.548V52.7676H143.099V53.6465H139.548V56.7988H143.328V57.6895Z" fill="#6D7580"></path> <path d="M159.364 57.6895H154.589V49.123H159.364V50.0078H155.585V52.7676H159.136V53.6465H155.585V56.7988H159.364V57.6895Z" fill="#6D7580"></path> <path d="M169.774 57.6895L168.707 54.9648H165.274L164.219 57.6895H163.211L166.598 49.0879H167.436L170.805 57.6895H169.774ZM168.397 54.0684L167.4 51.4141C167.272 51.0781 167.139 50.666 167.002 50.1777C166.916 50.5527 166.793 50.9648 166.633 51.4141L165.625 54.0684H168.397Z" fill="#6D7580"></path> <path d="M179.936 55.4102C179.936 56.1641 179.663 56.752 179.116 57.1738C178.569 57.5957 177.827 57.8066 176.89 57.8066C175.874 57.8066 175.093 57.6758 174.546 57.4141V56.4531C174.897 56.6016 175.28 56.7188 175.694 56.8047C176.108 56.8906 176.519 56.9336 176.925 56.9336C177.589 56.9336 178.089 56.8086 178.425 56.5586C178.761 56.3047 178.929 55.9531 178.929 55.5039C178.929 55.207 178.868 54.9648 178.747 54.7773C178.63 54.5859 178.431 54.4102 178.149 54.25C177.872 54.0898 177.448 53.9082 176.878 53.7051C176.081 53.4199 175.511 53.082 175.167 52.6914C174.827 52.3008 174.657 51.791 174.657 51.1621C174.657 50.502 174.905 49.9766 175.401 49.5859C175.897 49.1953 176.554 49 177.37 49C178.222 49 179.005 49.1562 179.72 49.4688L179.409 50.3359C178.702 50.0391 178.015 49.8906 177.347 49.8906C176.819 49.8906 176.407 50.0039 176.11 50.2305C175.813 50.457 175.665 50.7715 175.665 51.1738C175.665 51.4707 175.72 51.7148 175.829 51.9062C175.938 52.0938 176.122 52.2676 176.38 52.4277C176.642 52.584 177.04 52.7578 177.575 52.9492C178.474 53.2695 179.091 53.6133 179.427 53.9805C179.767 54.3477 179.936 54.8242 179.936 55.4102Z" fill="#6D7580"></path> <path d="M186.988 53.4062L189.273 49.123H190.351L187.492 54.3672V57.6895H186.484V54.4141L183.631 49.123H184.721L186.988 53.4062Z" fill="#6D7580"></path> </svg> 