<?xml version="1.0" encoding="UTF-8"?> <svg xmlns="http://www.w3.org/2000/svg" width="217" height="30" viewBox="0 0 217 30" fill="none"> <path fill-rule="evenodd" clip-rule="evenodd" d="M20.6439 6.93043L1.06863 4.41058C0.927221 4.40511 0.788995 4.36699 0.664774 4.29919C0.540553 4.2314 0.433707 4.13578 0.352603 4.01981C0.271498 3.90384 0.218334 3.77067 0.197273 3.63073C0.176212 3.49079 0.187826 3.34788 0.231206 3.21317C0.482283 2.56177 0.924763 2.00168 1.50038 1.60666C2.07599 1.21164 2.75775 1.00023 3.45587 1.00024L24.2058 1.00024C25.1221 1.00125 26.0005 1.36566 26.6484 2.01353C27.2962 2.66141 27.6607 3.53982 27.6617 4.45605V25.206C27.6607 26.1223 27.2962 27.0007 26.6484 27.6485C26.0005 28.2964 25.1221 28.6608 24.2058 28.6618C24.1104 28.6621 24.0183 28.6264 23.9481 28.5618C23.8778 28.4971 23.8346 28.4084 23.8269 28.3132L22.1445 8.49919C22.1114 8.10557 21.9444 7.73519 21.6713 7.44975C21.3983 7.1643 21.0357 6.98102 20.6439 6.93043ZM17.8967 10.0604C18.159 10.0913 18.4023 10.2127 18.5848 10.4035C18.7674 10.5944 18.8778 10.8428 18.8971 11.1062L20.2802 27.4C20.2961 27.5586 20.2785 27.7187 20.2286 27.87C20.1786 28.0213 20.0974 28.1605 19.9902 28.2784C19.8831 28.3963 19.7523 28.4904 19.6064 28.5545C19.4605 28.6186 19.3027 28.6513 19.1434 28.6505H17.3132C17.0256 28.6512 16.7484 28.543 16.5375 28.3475C16.3265 28.152 16.1975 27.8839 16.1764 27.5971L15.2291 16.5665C15.1953 16.1706 15.0262 15.7985 14.7501 15.5127C14.474 15.227 14.1079 15.0451 13.7134 14.9978L1.00421 13.3494C0.726257 13.3168 0.47011 13.1828 0.284827 12.973C0.0995451 12.7633 -0.00184972 12.4925 6.06991e-05 12.2127V9.05242C-0.00163446 8.88838 0.0321948 8.72592 0.0992253 8.57619C0.166256 8.42646 0.264899 8.29301 0.388381 8.18501C0.511863 8.077 0.657257 7.99701 0.814579 7.95051C0.971901 7.90402 1.13742 7.89212 1.29978 7.91564L17.8967 10.0604ZM6.06991e-05 18.0178C-0.00163446 17.8538 0.0321948 17.6913 0.0992253 17.5416C0.166256 17.3918 0.264899 17.2584 0.388381 17.1504C0.511863 17.0424 0.657257 16.9624 0.814579 16.9159C0.971901 16.8694 1.13742 16.8575 1.29978 16.881L10.9889 18.1277C11.2522 18.1609 11.4956 18.2851 11.677 18.4789C11.8583 18.6726 11.9661 18.9238 11.9817 19.1887L12.6789 27.4114C12.6949 27.5699 12.6773 27.7301 12.6273 27.8814C12.5774 28.0327 12.4962 28.1718 12.389 28.2898C12.2818 28.4077 12.151 28.5017 12.0051 28.5658C11.8592 28.6299 11.7015 28.6626 11.5421 28.6618H3.45587C2.53964 28.6608 1.66122 28.2964 1.01335 27.6485C0.365478 27.0007 0.00106369 26.1223 6.06991e-05 25.206V18.0178Z" fill="#1A5FFA"></path> <path d="M57.2481 22.0797C56.8692 22.3831 56.4339 22.6085 55.9674 22.7428C55.3893 22.9119 54.7886 22.9911 54.1864 22.9777C53.4335 22.9995 52.6828 22.8865 51.9697 22.6443C51.6958 22.5587 51.4456 22.4108 51.2385 22.2123C51.0314 22.0137 50.8731 21.7699 50.7761 21.4999C49.8919 18.9333 49.1404 16.8012 48.5215 15.1036C47.9 13.4061 47.4074 11.932 47.0512 10.6929H46.8845C46.8011 12.4057 46.7317 13.9719 46.6761 15.3916C46.6205 16.8113 46.5725 18.2007 46.5321 19.5598C46.4904 20.9126 46.4412 22.2767 46.3881 23.6598C46.3351 25.0429 46.2631 26.5586 46.1797 28.2069C45.7813 28.3405 45.3734 28.4444 44.9596 28.5176C44.4333 28.6144 43.8993 28.6626 43.3643 28.6616C42.4869 28.7085 41.6133 28.5159 40.8368 28.1046C40.2306 27.7257 39.9274 27.0891 39.9274 26.1759C39.9274 25.6529 39.9274 24.9292 39.9881 24.0046C40.0487 23.08 40.0866 22.0152 40.1548 20.8141C40.223 19.6129 40.3064 18.3245 40.4011 16.9414C40.4958 15.5584 40.5943 14.1601 40.6929 12.7391C40.7914 11.3182 40.8785 9.90857 40.9619 8.51412C41.0453 7.11967 41.1286 5.82753 41.212 4.64149C41.5866 4.21492 42.0443 3.86934 42.5572 3.62597C43.4419 3.21027 44.4153 3.01895 45.3915 3.06895C46.4489 3.01611 47.5027 3.22843 48.4571 3.6866C49.241 4.14667 49.841 4.86451 50.1546 5.71764C50.4616 6.4755 50.7761 7.29777 51.1095 8.22234C51.443 9.14692 51.7727 10.0942 52.1023 11.0605C52.432 12.0268 52.7579 12.9854 53.0762 13.9403C53.3945 14.8952 53.69 15.7668 53.9666 16.5701H54.1864C54.9594 14.1399 55.7324 11.7855 56.5054 9.5069C57.2784 7.2283 57.9542 5.31598 58.5327 3.76997C59.0023 3.54911 59.4956 3.38257 60.0029 3.27357C60.6487 3.13175 61.3084 3.06312 61.9695 3.06895C62.9912 3.02563 64.0097 3.2094 64.9517 3.60703C65.2845 3.74079 65.5793 3.95408 65.8105 4.22823C66.0418 4.50237 66.2022 4.82902 66.2779 5.17957C66.3866 5.7328 66.5129 6.57528 66.6569 7.70701C66.8009 8.83873 66.9385 10.1397 67.0699 11.6099C67.2063 13.0726 67.344 14.6123 67.4829 16.229C67.6231 17.8433 67.7444 19.4044 67.8618 20.9088C67.9793 22.4131 68.0665 23.7886 68.1498 25.0277C68.2332 26.2668 68.2862 27.2368 68.3166 27.9303C67.9022 28.1761 67.4559 28.3635 66.9903 28.4873C66.4069 28.6242 65.8085 28.6866 65.2094 28.673C64.4004 28.6962 63.5976 28.526 62.8676 28.1766C62.2209 27.8457 61.8698 27.1964 61.8142 26.2289C61.6197 23.0257 61.4934 20.0928 61.4353 17.4302C61.3772 14.7677 61.2938 12.5749 61.1852 10.8521H60.9768C60.6484 12.0116 60.1722 13.4755 59.5482 15.2438C58.9242 17.0122 58.1576 19.2908 57.2481 22.0797Z" fill="#333333"></path> <path d="M80.8174 7.7905C82.1337 7.77832 83.4466 7.92463 84.7279 8.22626C85.8076 8.47471 86.8283 8.93166 87.7328 9.57145C88.5557 10.1756 89.2169 10.9735 89.6577 11.8943C90.1339 12.932 90.3671 14.0646 90.3398 15.2061V24.5655C90.3723 25.188 90.1739 25.8006 89.7828 26.2859C89.3983 26.7231 88.9437 27.0932 88.4376 27.381C87.4624 27.9543 86.398 28.3604 85.2887 28.5822C83.8997 28.8742 82.483 29.014 81.0637 28.999C78.2218 28.999 75.9583 28.4533 74.2733 27.362C72.5884 26.2707 71.7459 24.6072 71.7459 22.3716C71.7459 20.4643 72.3118 19.0143 73.4435 18.0215C74.5752 17.0287 76.3145 16.4073 78.6613 16.1572L84.1709 15.5774V15.1227C84.1925 14.7298 84.103 14.3387 83.9127 13.9942C83.7224 13.6498 83.4389 13.3659 83.0947 13.175C82.3748 12.7607 81.3391 12.5536 79.9875 12.5536C78.9478 12.5537 77.912 12.681 76.9031 12.9325C75.9782 13.1532 75.0713 13.4432 74.19 13.8003C73.8247 13.5417 73.5323 13.1932 73.3412 12.7885C73.1071 12.334 72.9862 11.8296 72.9888 11.3183C72.9888 10.1019 73.6216 9.23041 74.8834 8.7075C75.7866 8.37884 76.7231 8.15012 77.6761 8.02543C78.7163 7.87281 79.7661 7.7943 80.8174 7.7905ZM81.0637 24.3192C81.6699 24.3187 82.2743 24.2552 82.8674 24.1298C83.34 24.0515 83.7952 23.8912 84.2126 23.6561V19.8441L80.8022 20.1359C80.0557 20.1757 79.3272 20.3802 78.6689 20.7346C78.4147 20.874 78.2045 21.0816 78.0619 21.334C77.9194 21.5863 77.85 21.8735 77.8618 22.1632C77.8521 22.4675 77.916 22.7696 78.0479 23.044C78.1798 23.3184 78.3759 23.557 78.6196 23.7395C79.1173 24.126 79.932 24.3192 81.0637 24.3192Z" fill="#333333"></path> <path d="M101.276 28.2827C100.895 28.387 100.508 28.463 100.116 28.5101C99.5671 28.5816 99.0139 28.6158 98.4602 28.6124C97.2173 28.6124 96.3193 28.4128 95.7661 28.0137C95.2128 27.612 94.94 26.8314 94.94 25.6719V13.0537C94.9187 12.346 95.1216 11.6497 95.5198 11.0643C95.95 10.4726 96.5 9.9781 97.134 9.61303C98.1567 9.01738 99.2628 8.57802 100.415 8.30953C101.739 7.98216 103.099 7.818 104.462 7.82071C107.335 7.82071 108.771 8.78824 108.771 10.7233C108.776 11.1588 108.707 11.5919 108.566 12.0041C108.446 12.3505 108.293 12.6843 108.108 13.0006C107.344 12.8487 106.567 12.7788 105.789 12.7922C104.979 12.7941 104.173 12.892 103.386 13.084C102.651 13.2575 101.941 13.5263 101.276 13.8835V28.2827Z" fill="#333333"></path> <path d="M123.53 18.1048L130.68 25.0619C130.613 26.034 130.245 26.9611 129.627 27.7144C129.313 28.0349 128.934 28.2841 128.516 28.445C128.097 28.6059 127.649 28.6746 127.202 28.6465C126.457 28.662 125.724 28.4605 125.091 28.0668C124.324 27.5387 123.64 26.9003 123.06 26.1721L118.13 20.3253V28.2827C117.75 28.3874 117.362 28.4634 116.971 28.5101C116.422 28.5816 115.868 28.6158 115.315 28.6124C114.072 28.6124 113.175 28.4128 112.624 28.0137C112.074 27.6146 111.793 26.8378 111.783 25.6833V1.379C112.086 1.29564 112.488 1.21606 112.984 1.1327C113.536 1.04226 114.093 0.997896 114.652 1.00008C115.895 1.00008 116.785 1.20722 117.323 1.62152C117.861 2.03581 118.13 2.82271 118.13 3.98222V15.7024L125.629 8.0822C126.732 8.02654 127.823 8.33255 128.736 8.95373C129.09 9.19085 129.381 9.51089 129.583 9.88601C129.785 10.2611 129.893 10.68 129.896 11.106C129.905 11.8345 129.633 12.5385 129.138 13.0727C128.388 13.8743 127.593 14.6334 126.758 15.3462L123.53 18.1048Z" fill="#333333"></path> <path d="M138.717 21.0035C138.87 21.5309 139.128 22.0216 139.477 22.4457C139.825 22.8699 140.257 23.2185 140.744 23.4703C141.792 23.9703 142.942 24.2182 144.102 24.1941C145.209 24.2076 146.311 24.0531 147.372 23.7356C148.24 23.4854 149.075 23.1304 149.858 22.6784C150.273 22.9536 150.626 23.314 150.892 23.7356C151.167 24.1681 151.31 24.6708 151.305 25.1831C151.317 25.7867 151.111 26.3745 150.725 26.839C150.289 27.3463 149.746 27.7501 149.134 28.0212C148.369 28.3637 147.56 28.6008 146.732 28.726C145.729 28.883 144.715 28.959 143.7 28.9534C142.164 28.9757 140.635 28.7492 139.172 28.2827C137.855 27.866 136.641 27.1751 135.61 26.2554C134.589 25.3172 133.789 24.1641 133.268 22.8792C132.673 21.3633 132.384 19.7443 132.419 18.1161C132.381 16.5368 132.67 14.9668 133.268 13.5046C133.784 12.2757 134.56 11.173 135.542 10.2723C136.487 9.41877 137.601 8.77329 138.812 8.37771C140.035 7.97705 141.314 7.77367 142.601 7.77522C143.92 7.76068 145.231 7.97874 146.474 8.41939C147.594 8.8118 148.625 9.4237 149.505 10.2193C150.35 10.9959 151.02 11.9425 151.472 12.9968C151.951 14.1144 152.191 15.32 152.177 16.536C152.205 16.8978 152.156 17.2615 152.035 17.6035C151.913 17.9455 151.722 18.2583 151.472 18.5216C150.913 19.0057 150.221 19.3096 149.486 19.3931L138.717 21.0035ZM142.65 12.4739C141.559 12.437 140.496 12.8302 139.691 13.569C138.903 14.2991 138.439 15.355 138.3 16.7368L146.212 15.456C146.135 14.6906 145.8 13.9742 145.261 13.425C144.682 12.7884 143.81 12.4739 142.65 12.4739Z" fill="#333333"></path> <path d="M163.855 7.7905C165.173 7.77832 166.487 7.92462 167.77 8.22626C168.849 8.47471 169.87 8.93166 170.774 9.57145C171.597 10.1756 172.258 10.9735 172.699 11.8943C173.175 12.932 173.409 14.0646 173.381 15.2061V24.5655C173.414 25.188 173.216 25.8006 172.824 26.2859C172.439 26.7232 171.983 27.0932 171.475 27.381C170.502 27.9544 169.438 28.3604 168.33 28.5822C166.941 28.8742 165.525 29.014 164.105 28.999C161.261 28.999 158.996 28.4533 157.311 27.362C155.626 26.2707 154.785 24.6072 154.788 22.3716C154.788 20.4643 155.353 19.0143 156.485 18.0215C157.617 17.0287 159.356 16.4073 161.703 16.1572L167.212 15.5774V15.1227C167.234 14.7293 167.144 14.3378 166.953 13.9932C166.762 13.6486 166.478 13.365 166.133 13.175C165.416 12.762 164.378 12.5536 163.029 12.5536C161.988 12.5537 160.951 12.681 159.941 12.9325C159.016 13.1537 158.109 13.4438 157.228 13.8003C156.863 13.5407 156.571 13.1925 156.379 12.7885C156.145 12.334 156.024 11.8296 156.027 11.3183C156.027 10.1032 156.658 9.23294 157.921 8.7075C158.826 8.37843 159.763 8.1497 160.718 8.02543C161.757 7.87283 162.805 7.79432 163.855 7.7905ZM164.105 24.3192C164.71 24.3189 165.313 24.2554 165.905 24.1298C166.378 24.0522 166.833 23.8919 167.25 23.6561V19.8441L163.84 20.1359C163.094 20.1762 162.365 20.3807 161.707 20.7346C161.453 20.874 161.242 21.0816 161.1 21.334C160.957 21.5863 160.888 21.8735 160.9 22.1632C160.89 22.4675 160.954 22.7696 161.086 23.044C161.218 23.3184 161.414 23.557 161.657 23.7395C162.158 24.126 162.974 24.3192 164.105 24.3192Z" fill="#333333"></path> <path d="M177.5 27.0929C177.262 26.6034 177.143 26.0647 177.152 25.5203C177.15 24.995 177.269 24.4763 177.5 24.0046C177.744 23.509 178.042 23.0425 178.391 22.614L186.178 13.3379H177.978C177.812 12.9942 177.667 12.6412 177.542 12.2807C177.388 11.8348 177.311 11.3657 177.315 10.8938C177.315 10.0109 177.516 9.37811 177.917 8.99918C178.125 8.80461 178.369 8.65319 178.636 8.55368C178.903 8.45416 179.186 8.40853 179.471 8.41942H192.559C192.942 8.77835 193.264 9.19833 193.51 9.6623C193.769 10.1618 193.899 10.7179 193.889 11.2803C193.885 11.7909 193.765 12.2939 193.537 12.7505C193.294 13.2453 192.995 13.7106 192.646 14.1374L184.977 23.4476H193.692C193.888 23.7712 194.041 24.119 194.147 24.4821C194.284 24.925 194.355 25.3862 194.355 25.85C194.355 26.7316 194.154 27.3632 193.753 27.7446C193.545 27.9396 193.301 28.0912 193.034 28.1907C192.767 28.2903 192.483 28.3357 192.199 28.3244H178.433C178.051 27.973 177.735 27.5559 177.5 27.0929Z" fill="#333333"></path> <path d="M202.786 21.0035C202.939 21.5311 203.198 22.0219 203.548 22.4461C203.897 22.8702 204.329 23.2187 204.817 23.4703C205.863 23.9698 207.012 24.2177 208.171 24.194C209.278 24.2072 210.38 24.0526 211.441 23.7355C212.308 23.4855 213.141 23.1304 213.923 22.6783C214.342 22.952 214.697 23.3126 214.965 23.7355C215.239 24.168 215.383 24.6708 215.378 25.183C215.389 25.7867 215.184 26.3744 214.798 26.839C214.361 27.3471 213.816 27.7511 213.203 28.0212C212.438 28.3642 211.629 28.6013 210.8 28.726C209.798 28.8832 208.784 28.9592 207.769 28.9534C206.233 28.9749 204.704 28.7484 203.241 28.2827C201.925 27.8641 200.711 27.1734 199.679 26.2554C198.658 25.318 197.859 24.1646 197.341 22.8792C196.746 21.3633 196.457 19.7443 196.492 18.1161C196.454 16.5368 196.743 14.9667 197.341 13.5045C197.856 12.2755 198.632 11.1728 199.614 10.2723C200.561 9.41828 201.676 8.77278 202.888 8.37768C204.111 7.97664 205.391 7.77326 206.678 7.77519C207.996 7.76097 209.307 7.97902 210.55 8.41936C211.67 8.8136 212.7 9.42531 213.582 10.2193C214.426 10.9959 215.096 11.9425 215.548 12.9968C216.026 14.1147 216.265 15.3203 216.249 16.536C216.277 16.8978 216.229 17.2615 216.107 17.6035C215.986 17.9455 215.794 18.2582 215.545 18.5215C214.985 19.0064 214.291 19.3103 213.555 19.3931L202.786 21.0035ZM206.723 12.4739C205.63 12.436 204.566 12.8293 203.76 13.569C202.972 14.299 202.509 15.355 202.373 16.7368L210.304 15.456C210.226 14.6902 209.889 13.9738 209.349 13.425C208.75 12.7884 207.883 12.4739 206.723 12.4739Z" fill="#333333"></path> </svg> 