<?xml version="1.0" encoding="UTF-8"?> <svg xmlns="http://www.w3.org/2000/svg" width="49" height="28" viewBox="0 0 49 28" fill="none"> <g clip-path="url(#clip0_1641_829)"> <rect width="49" height="28" rx="6" fill="white"></rect> <rect width="49" height="28" rx="6" fill="#1A5FFA" fill-opacity="0.1"></rect> <path d="M15.082 16.2793C15.082 16.8717 14.9362 17.3822 14.6445 17.8105C14.3574 18.2389 13.9427 18.5671 13.4004 18.7949C12.8626 19.0228 12.2201 19.1367 11.4727 19.1367C11.1081 19.1367 10.7594 19.1162 10.4268 19.0752C10.0941 19.0342 9.77962 18.9749 9.4834 18.8975C9.19173 18.8154 8.92513 18.7174 8.68359 18.6035V17.0586C9.08919 17.2363 9.54264 17.3981 10.0439 17.5439C10.5452 17.6852 11.0557 17.7559 11.5752 17.7559C11.999 17.7559 12.3499 17.7012 12.6279 17.5918C12.9105 17.4779 13.1201 17.3184 13.2568 17.1133C13.3936 16.9036 13.4619 16.6598 13.4619 16.3818C13.4619 16.0856 13.3822 15.835 13.2227 15.6299C13.0632 15.4248 12.8216 15.238 12.498 15.0693C12.179 14.8962 11.778 14.7116 11.2949 14.5156C10.9668 14.3835 10.6523 14.2331 10.3516 14.0645C10.0553 13.8958 9.79102 13.6976 9.55859 13.4697C9.32617 13.2419 9.1416 12.973 9.00488 12.6631C8.87272 12.3486 8.80664 11.9795 8.80664 11.5557C8.80664 10.9906 8.94108 10.5075 9.20996 10.1064C9.4834 9.7054 9.86621 9.39779 10.3584 9.18359C10.8551 8.9694 11.4339 8.8623 12.0947 8.8623C12.6188 8.8623 13.111 8.91699 13.5713 9.02637C14.0361 9.13574 14.4919 9.29069 14.9385 9.49121L14.4189 10.8105C14.0088 10.6419 13.61 10.5075 13.2227 10.4072C12.8398 10.307 12.4479 10.2568 12.0469 10.2568C11.7005 10.2568 11.4066 10.3092 11.165 10.4141C10.9235 10.5189 10.7389 10.667 10.6113 10.8584C10.4883 11.0452 10.4268 11.2686 10.4268 11.5283C10.4268 11.82 10.4974 12.0661 10.6387 12.2666C10.7845 12.4626 11.0078 12.6426 11.3086 12.8066C11.6139 12.9707 12.0059 13.153 12.4844 13.3535C13.0358 13.5814 13.5029 13.8206 13.8857 14.0713C14.2731 14.3219 14.5693 14.6227 14.7744 14.9736C14.9795 15.32 15.082 15.7552 15.082 16.2793ZM23.5449 15.1992C23.5449 15.8281 23.4629 16.3864 23.2988 16.874C23.1348 17.3617 22.8955 17.7741 22.5811 18.1113C22.2666 18.444 21.8883 18.6992 21.4463 18.877C21.0042 19.0501 20.5052 19.1367 19.9492 19.1367C19.4297 19.1367 18.9535 19.0501 18.5205 18.877C18.0876 18.6992 17.7116 18.444 17.3926 18.1113C17.0781 17.7741 16.8343 17.3617 16.6611 16.874C16.488 16.3864 16.4014 15.8281 16.4014 15.1992C16.4014 14.3652 16.5449 13.6589 16.832 13.0801C17.1237 12.4967 17.5384 12.0524 18.0762 11.7471C18.6139 11.4417 19.2542 11.2891 19.9971 11.2891C20.6943 11.2891 21.3096 11.4417 21.8428 11.7471C22.376 12.0524 22.793 12.4967 23.0938 13.0801C23.3945 13.6634 23.5449 14.3698 23.5449 15.1992ZM18.0557 15.1992C18.0557 15.7507 18.1217 16.2223 18.2539 16.6143C18.3906 17.0062 18.6003 17.307 18.8828 17.5166C19.1654 17.7217 19.5299 17.8242 19.9766 17.8242C20.4232 17.8242 20.7878 17.7217 21.0703 17.5166C21.3529 17.307 21.5602 17.0062 21.6924 16.6143C21.8245 16.2223 21.8906 15.7507 21.8906 15.1992C21.8906 14.6478 21.8245 14.1807 21.6924 13.7979C21.5602 13.4105 21.3529 13.1165 21.0703 12.916C20.7878 12.7109 20.4209 12.6084 19.9697 12.6084C19.3044 12.6084 18.819 12.8317 18.5137 13.2783C18.2083 13.7249 18.0557 14.3652 18.0557 15.1992ZM32.0898 15.1992C32.0898 15.8281 32.0078 16.3864 31.8438 16.874C31.6797 17.3617 31.4404 17.7741 31.126 18.1113C30.8115 18.444 30.4333 18.6992 29.9912 18.877C29.5492 19.0501 29.0501 19.1367 28.4941 19.1367C27.9746 19.1367 27.4984 19.0501 27.0654 18.877C26.6325 18.6992 26.2565 18.444 25.9375 18.1113C25.623 17.7741 25.3792 17.3617 25.2061 16.874C25.0329 16.3864 24.9463 15.8281 24.9463 15.1992C24.9463 14.3652 25.0898 13.6589 25.377 13.0801C25.6686 12.4967 26.0833 12.0524 26.6211 11.7471C27.1589 11.4417 27.7992 11.2891 28.542 11.2891C29.2393 11.2891 29.8545 11.4417 30.3877 11.7471C30.9209 12.0524 31.3379 12.4967 31.6387 13.0801C31.9395 13.6634 32.0898 14.3698 32.0898 15.1992ZM26.6006 15.1992C26.6006 15.7507 26.6667 16.2223 26.7988 16.6143C26.9355 17.0062 27.1452 17.307 27.4277 17.5166C27.7103 17.7217 28.0749 17.8242 28.5215 17.8242C28.9681 17.8242 29.3327 17.7217 29.6152 17.5166C29.8978 17.307 30.1051 17.0062 30.2373 16.6143C30.3695 16.2223 30.4355 15.7507 30.4355 15.1992C30.4355 14.6478 30.3695 14.1807 30.2373 13.7979C30.1051 13.4105 29.8978 13.1165 29.6152 12.916C29.3327 12.7109 28.9658 12.6084 28.5146 12.6084C27.8493 12.6084 27.3639 12.8317 27.0586 13.2783C26.7533 13.7249 26.6006 14.3652 26.6006 15.1992ZM37.8799 11.2891C38.7321 11.2891 39.3952 11.5101 39.8691 11.9521C40.3477 12.3896 40.5869 13.0938 40.5869 14.0645V19H38.9805V14.3652C38.9805 13.7773 38.8597 13.3376 38.6182 13.0459C38.3766 12.7497 38.0029 12.6016 37.4971 12.6016C36.7633 12.6016 36.2529 12.8271 35.9658 13.2783C35.6833 13.7295 35.542 14.3835 35.542 15.2402V19H33.9355V11.4326H35.1865L35.4121 12.458H35.501C35.665 12.1937 35.8678 11.9772 36.1094 11.8086C36.3555 11.6354 36.6289 11.5055 36.9297 11.4189C37.235 11.3324 37.5518 11.2891 37.8799 11.2891Z" fill="#1A5FFA"></path> </g> <defs> <clipPath id="clip0_1641_829"> <rect width="49" height="28" rx="6" fill="white"></rect> </clipPath> </defs> </svg> 