<?xml version="1.0" encoding="UTF-8"?> <svg xmlns="http://www.w3.org/2000/svg" width="168" height="168" viewBox="0 0 168 168" fill="none"> <path d="M59.6 82.6C60.1067 82.6 60.48 82.7333 60.72 83C60.96 83.24 61.08 83.64 61.08 84.2V96.12C61.08 96.7333 60.6667 97.2933 59.84 97.8C59.04 98.28 58.04 98.6533 56.84 98.92C55.64 99.1867 54.4933 99.32 53.4 99.32C49.6667 99.32 46.9067 98.16 45.12 95.84C43.36 93.4933 42.48 89.8533 42.48 84.92C42.48 80.12 43.3733 76.5467 45.16 74.2C46.9467 71.8533 49.72 70.68 53.48 70.68C54.68 70.68 55.84 70.8267 56.96 71.12C58.08 71.3867 58.9867 71.7467 59.68 72.2C60.3733 72.6267 60.72 73.0667 60.72 73.52C60.72 73.8667 60.5733 74.3333 60.28 74.92C60.0133 75.5067 59.68 76.0267 59.28 76.48C58.88 76.9067 58.52 77.12 58.2 77.12C58.0933 77.12 57.8133 77.0267 57.36 76.84C56.9067 76.6267 56.4 76.4533 55.84 76.32C55.28 76.16 54.6133 76.08 53.84 76.08C52.1333 76.08 50.88 76.8 50.08 78.24C49.28 79.68 48.88 81.92 48.88 84.96C48.88 88.2133 49.2533 90.52 50 91.88C50.7733 93.2133 51.9067 93.88 53.4 93.88C54.04 93.88 54.5867 93.8267 55.04 93.72V87.88H53C52.6 87.88 52.3067 87.72 52.12 87.4C51.9333 87.08 51.84 86.5733 51.84 85.88V84.6C51.84 83.9067 51.9333 83.4 52.12 83.08C52.3067 82.76 52.6 82.6 53 82.6H59.6ZM66.8303 99C66.3236 99 65.9503 98.88 65.7103 98.64C65.4703 98.3733 65.3503 97.96 65.3503 97.4V72.6C65.3503 72.04 65.4703 71.64 65.7103 71.4C65.9503 71.1333 66.3236 71 66.8303 71H74.4303C77.897 71 80.4436 72.16 82.0703 74.48C83.7236 76.8 84.5503 80.3067 84.5503 85C84.5503 89.6933 83.7236 93.2 82.0703 95.52C80.4436 97.84 77.897 99 74.4303 99H66.8303ZM74.2303 93.76C75.6436 93.76 76.657 93.1067 77.2703 91.8C77.8836 90.4667 78.1903 88.2 78.1903 85C78.1903 81.8 77.8836 79.5467 77.2703 78.24C76.657 76.9067 75.6436 76.24 74.2303 76.24H71.6703V93.76H74.2303ZM90.6781 99.08C89.0781 99.08 88.2781 98.6533 88.2781 97.8V72.6C88.2781 72.04 88.3981 71.64 88.6381 71.4C88.9048 71.1333 89.3181 71 89.8781 71H96.7981C98.9048 71 100.758 71.6133 102.358 72.84C103.985 74.04 104.798 76.3467 104.798 79.76C104.798 82.1067 104.331 83.9333 103.398 85.24C102.465 86.52 101.425 87.3867 100.278 87.84C99.1315 88.2933 98.1048 88.52 97.1981 88.52H94.4381V97.8C94.4381 98.6533 93.6381 99.08 92.0381 99.08H90.6781ZM96.5181 83.36C97.1315 83.36 97.6648 83.0933 98.1181 82.56C98.5715 82.0267 98.7981 81.0933 98.7981 79.76C98.7981 78.4533 98.5715 77.5467 98.1181 77.04C97.6648 76.5067 97.1315 76.24 96.5181 76.24H94.3981V83.36H96.5181ZM109.935 99.08C108.335 99.08 107.535 98.6533 107.535 97.8V72.6C107.535 72.04 107.655 71.64 107.895 71.4C108.162 71.1333 108.575 71 109.135 71H115.815C118.268 71 120.242 71.6133 121.735 72.84C123.228 74.04 123.975 76.0533 123.975 78.88C123.975 82 122.708 84.2533 120.175 85.64V85.8C120.762 86.12 121.295 86.6533 121.775 87.4C122.255 88.1467 122.615 88.9467 122.855 89.8L125.215 97.48C125.295 97.8 125.335 97.96 125.335 97.96C125.335 98.68 124.508 99.04 122.855 99.04H121.455C120.042 99.04 119.242 98.68 119.055 97.96L116.935 90.36C116.695 89.7733 116.415 89.36 116.095 89.12C115.802 88.88 115.322 88.76 114.655 88.76H113.695V97.8C113.695 98.6533 112.895 99.08 111.295 99.08H109.935ZM115.935 82.92C116.522 82.92 117.015 82.6267 117.415 82.04C117.842 81.4533 118.055 80.6 118.055 79.48C118.055 78.36 117.842 77.5467 117.415 77.04C117.015 76.5067 116.482 76.24 115.815 76.24H113.695V82.92H115.935Z" fill="#6D7580"></path> <path d="M84 0L86.9187 8.98278H96.3637L88.7225 14.5344L91.6412 23.5172L84 17.9656L76.3588 23.5172L79.2775 14.5344L71.6363 8.98278H81.0813L84 0Z" fill="#6D7580"></path> <path d="M48 10L50.9187 18.9828H60.3637L52.7225 24.5344L55.6412 33.5172L48 27.9656L40.3588 33.5172L43.2775 24.5344L35.6363 18.9828H45.0813L48 10Z" fill="#6D7580"></path> <path d="M120 10L122.919 18.9828H132.364L124.723 24.5344L127.641 33.5172L120 27.9656L112.359 33.5172L115.277 24.5344L107.636 18.9828H117.081L120 10Z" fill="#6D7580"></path> <path d="M23 36L25.9187 44.9828H35.3637L27.7225 50.5344L30.6412 59.5172L23 53.9656L15.3588 59.5172L18.2775 50.5344L10.6363 44.9828H20.0813L23 36Z" fill="#6D7580"></path> <path d="M13 71L15.9187 79.9828H25.3637L17.7225 85.5344L20.6412 94.5172L13 88.9656L5.35879 94.5172L8.27747 85.5344L0.636266 79.9828H10.0813L13 71Z" fill="#6D7580"></path> <path d="M155 71L157.919 79.9828H167.364L159.723 85.5344L162.641 94.5172L155 88.9656L147.359 94.5172L150.277 85.5344L142.636 79.9828H152.081L155 71Z" fill="#6D7580"></path> <path d="M145 106L147.919 114.983H157.364L149.723 120.534L152.641 129.517L145 123.966L137.359 129.517L140.277 120.534L132.636 114.983H142.081L145 106Z" fill="#6D7580"></path> <path d="M120 133L122.919 141.983H132.364L124.723 147.534L127.641 156.517L120 150.966L112.359 156.517L115.277 147.534L107.636 141.983H117.081L120 133Z" fill="#6D7580"></path> <path d="M84 142L86.9187 150.983H96.3637L88.7225 156.534L91.6412 165.517L84 159.966L76.3588 165.517L79.2775 156.534L71.6363 150.983H81.0813L84 142Z" fill="#6D7580"></path> <path d="M48 133L50.9187 141.983H60.3637L52.7225 147.534L55.6412 156.517L48 150.966L40.3588 156.517L43.2775 147.534L35.6363 141.983H45.0813L48 133Z" fill="#6D7580"></path> <path d="M22 106L24.9187 114.983H34.3637L26.7225 120.534L29.6412 129.517L22 123.966L14.3588 129.517L17.2775 120.534L9.63627 114.983H19.0813L22 106Z" fill="#6D7580"></path> <path d="M145 36L147.919 44.9828H157.364L149.723 50.5344L152.641 59.5172L145 53.9656L137.359 59.5172L140.277 50.5344L132.636 44.9828H142.081L145 36Z" fill="#6D7580"></path> </svg> 