<?xml version="1.0" encoding="UTF-8"?> <svg xmlns="http://www.w3.org/2000/svg" width="32" height="32" viewBox="0 0 32 32" fill="none"> <rect width="32" height="32" rx="6" fill="#DADEE3"></rect> <path d="M24 9.8526C23.3036 10.3159 22.5324 10.6703 21.7164 10.902C21.2784 10.4271 20.6962 10.0904 20.0488 9.9376C19.4013 9.78481 18.7196 9.82324 18.0961 10.0477C17.4725 10.2722 16.937 10.6718 16.5622 11.1927C16.1873 11.7135 15.9911 12.3303 16 12.9598V13.6457C14.7219 13.6769 13.4555 13.4096 12.3135 12.8675C11.1714 12.3253 10.1893 11.5253 9.45455 10.5385C9.45455 10.5385 6.54545 16.7117 13.0909 19.4553C11.5931 20.4142 9.80884 20.895 8 20.8271C14.5455 24.2566 22.5455 20.8271 22.5455 12.9392C22.5448 12.7481 22.5253 12.5575 22.4873 12.3699C23.2295 11.6795 23.7533 10.8079 24 9.8526Z" fill="white"></path> </svg> 